<?xml version="1.0" encoding="UTF-8"?>
<!DOCTYPE svg PUBLIC "-//W3C//DTD SVG 1.1//EN" "http://www.w3.org/Graphics/SVG/1.1/DTD/svg11.dtd">
<!-- Creator: CorelDRAW -->
<svg xmlns="http://www.w3.org/2000/svg" xml:space="preserve" width="210mm" height="297mm" version="1.1" style="shape-rendering:geometricPrecision; text-rendering:geometricPrecision; image-rendering:optimizeQuality; fill-rule:evenodd; clip-rule:evenodd"
viewBox="0 0 21000 29700"
 xmlns:xlink="http://www.w3.org/1999/xlink">
 <defs>
  <style type="text/css">
   <![CDATA[
    .fil8 {fill:#332C2B}
    .fil5 {fill:#0A0A0C}
    .fil6 {fill:#11ADE4}
    .fil3 {fill:#201A18}
    .fil4 {fill:#959591}
    .fil1 {fill:#CC312B}
    .fil7 {fill:#DEDEDD}
    .fil0 {fill:#F4DC00}
    .fil2 {fill:#FEFEFE}
   ]]>
  </style>
 </defs>
 <g id="Layer_x0020_1">
  <metadata id="CorelCorpID_0Corel-Layer"/>
  <g id="Universitas_x0020_Trunojoyo.cdr">
   <path class="fil0" d="M2041 12484c-4,196 162,1162 205,1417 79,461 171,918 272,1364 200,886 433,1729 704,2562 383,1174 879,2374 1423,3465l415 804c38,68 124,212 142,272 229,33 470,85 705,124 763,123 1431,208 2211,276 2480,217 4867,83 7297,-384 105,-21 92,-60 184,-231 196,-365 374,-736 560,-1111 523,-1057 1050,-2393 1428,-3548 502,-1534 854,-3131 1052,-4753 30,-245 50,-205 -49,-322l-199 -216c-80,-73 -132,-138 -201,-213l-628 -628c-79,-72 -133,-120 -213,-202l-435 -394c-68,-70 -147,-127 -219,-196 -36,-34 -61,-51 -108,-93 -31,-30 -78,-71 -115,-99 -76,-59 -147,-123 -225,-189 -1158,-1001 -3115,-2331 -4426,-3037 -446,-240 -898,-485 -1367,-706 -60,-29 -82,-57 -146,-30l-699 358c-737,393 -1432,778 -2109,1207 -563,356 -964,628 -1492,996 -250,175 -717,522 -948,711l-687 557c-42,36 -72,58 -108,92l-658 585c-38,37 -76,62 -115,99 -40,38 -62,65 -102,100l-1349 1363z"/>
   <path class="fil0" d="M11446 9216c-161,119 -426,30 -373,-222 53,-259 417,-179 383,-21l-68 3c-38,-43 -52,-96 -148,-70 -53,15 -82,69 -85,137 -3,70 16,124 78,143 25,8 72,8 95,-1 44,-17 37,-18 37,-70l-90 -22 5 -60 170 18c2,3 3,8 3,10l3 71c-3,28 -7,56 -10,84z"/>
   <path class="fil0" d="M8770 9127c145,-206 64,-208 234,-231l-115 189 211 221 -114 16c-35,-60 -95,-107 -139,-161 -86,98 -45,75 -34,207l-80 14 -86 -415 81 -10 42 170z"/>
   <path class="fil0" d="M9146 8853c114,-9 76,-15 167,104 36,46 73,102 114,138l-20 -238c3,-27 1,-16 9,-31l50 -5c7,11 8,11 15,31l21 179c8,68 23,141 16,211 -110,8 -101,-17 -157,-93 -35,-47 -80,-98 -108,-144 -27,61 14,184 12,263l-63 5c-28,-43 -29,-154 -34,-208 -8,-71 -16,-140 -22,-212z"/>
   <path class="fil0" d="M11652 8903l77 13c-12,81 -68,366 -103,414l-73 -15 99 -412z"/>
   <path class="fil0" d="M8509 9015l12 53c-48,43 -157,40 -214,76l16 80c193,-19 201,-106 225,8 -29,27 -153,52 -201,64l30 111 232 -52 11 53c-40,33 -244,79 -309,88l-103 -407 301 -74z"/>
   <path class="fil0" d="M9770 8789c289,-75 356,353 124,419 -134,39 -240,-33 -265,-141 -36,-151 23,-248 141,-278z"/>
   <path class="fil0" d="M10686 8789c287,-111 386,339 147,415 -296,94 -379,-325 -147,-415z"/>
   <path class="fil0" d="M10156 8770l79 -2 6 342c54,15 158,-2 180,6 39,14 25,-4 33,40 -20,40 15,27 -70,32l-227 -1 -1 -417z"/>
   <path class="fil0" d="M8070 9147l23 63 -111 49 122 323 -70 29c-70,-77 -76,-232 -139,-320l-111 38 -24 -65 310 -117z"/>
   <path class="fil0" d="M12061 9003c187,31 359,73 287,310 -58,191 -217,165 -393,93l106 -403z"/>
   <path class="fil0" d="M12670 9189l86 31 2 454 -83 -34 -6 -104 -153 -55 -61 66c-39,-1 -51,-4 -82,-26l297 -332z"/>
   <path class="fil0" d="M12842 9724c26,-101 123,-291 167,-389 137,46 61,65 120,339l13 -16c37,-51 64,-149 106,-218l67 33 -166 383 -83 -41 -51 -297 -108 228 -65 -22z"/>
   <path class="fil0" d="M7048 9602c42,-33 256,-137 305,-144l20 50c-2,3 -5,6 -7,7l-101 56 152 319 -75 31 -153 -311 -113 48 -28 -56z"/>
   <path class="fil0" d="M9554 9947c18,148 109,191 210,91 12,-134 -35,-340 -46,-481l157 -18c23,300 178,657 -195,687 -171,14 -246,-57 -274,-206 -15,-81 -54,-346 -49,-420l153 -11c16,120 30,238 44,358z"/>
   <path class="fil0" d="M6667 9835c37,-36 215,-144 263,-163l28 50c-30,42 -122,79 -180,126 11,40 19,43 35,78 77,-25 118,-80 193,-105l26 52c-32,35 -131,93 -176,110l62 104 203 -121 32 60c-59,35 -216,146 -273,161l-213 -352z"/>
   <path class="fil0" d="M7638 9810c9,103 -54,73 -55,73l12 -73c-44,-15 -48,17 -65,-74l64 -23c19,22 40,59 44,97z"/>
   <path class="fil0" d="M8637 9760c172,-27 547,-185 566,100 7,102 -37,129 -88,176 25,31 39,30 69,56l167 180c-172,41 -151,61 -250,-35 -108,-105 -125,-139 -230,-126l52 252 -154 29 -132 -632z"/>
   <path class="fil0" d="M10127 9527l138 1c16,16 214,340 225,363l8 -358 149 2 -11 649 -154 -8 -213 -343 -7 341 -149 2 14 -649z"/>
   <path class="fil0" d="M11747 10220c67,-96 96,-354 147,-483l146 37c-11,98 -112,480 -173,540 -152,148 -454,-24 -341,-233l138 19c-3,61 -12,64 7,118l76 2z"/>
   <path class="fil0" d="M13448 10022c23,-62 173,-323 213,-364 51,22 105,55 154,86 51,31 93,66 72,151 -48,189 -248,49 -289,31l-78 133 -72 -37z"/>
   <path class="fil0" d="M11060 9577c467,-73 491,609 120,665 -475,71 -492,-606 -120,-665z"/>
   <path class="fil0" d="M7957 10009c139,-36 362,-160 489,-176l42 121 -165 71 177 476 -145 49 -185 -471 -161 58c-25,-29 -41,-81 -52,-128z"/>
   <path class="fil0" d="M14056 9904c93,49 166,117 256,173l-33 58c-68,-27 -128,-95 -191,-121 -31,26 -38,40 -51,77 46,28 132,79 166,122l-39 46c-61,-26 -109,-83 -178,-111l-55 89c51,48 145,94 185,140l-40 49c-45,-22 -225,-148 -258,-181l238 -341z"/>
   <path class="fil0" d="M6489 10291c148,72 199,-64 143,-97 -53,-32 -158,77 -254,29 -171,-87 75,-369 223,-210l-49 47c-41,-6 -72,-27 -114,-1 -42,27 -35,72 -26,81 65,26 127,-45 214,-40 133,8 170,205 -16,284 -86,36 -134,5 -178,-44 21,-25 30,-29 57,-49z"/>
   <path class="fil0" d="M6159 10188c40,26 246,291 265,337 -33,21 -24,24 -61,39 -43,-37 -222,-269 -255,-327 20,-23 27,-24 51,-49z"/>
   <path class="fil0" d="M12330 9931c182,-61 374,86 402,232 37,186 -88,382 -231,422 -191,52 -380,-81 -407,-237 -36,-205 91,-369 236,-417z"/>
   <path class="fil0" d="M14174 10501c22,-39 224,-299 253,-324 37,14 35,19 65,48l-32 307c38,-24 131,-153 171,-199l55 42c-13,37 -93,132 -125,172 -21,27 -45,56 -66,84l-52 62 -78 -29 30 -307c-60,35 -94,126 -169,189l-52 -45z"/>
   <path class="fil0" d="M7381 10778c57,26 83,93 184,33 46,-26 100,-124 -7,-124 -133,0 -257,116 -374,-27 -166,-205 266,-516 429,-239 -35,30 -79,54 -119,78 -57,-22 -36,-59 -121,-34 -50,14 -73,45 -73,102 123,11 239,-73 356,-27 81,32 151,150 104,265 -61,148 -381,288 -492,47 39,-21 76,-48 113,-74z"/>
   <path class="fil0" d="M12836 10815c35,-86 127,-186 125,-289 -2,-124 -23,-260 -20,-387 44,14 134,61 159,92l8 248c188,-65 172,-203 376,-41 -36,41 -245,144 -311,178 -142,73 -87,115 -205,273l-132 -74z"/>
   <path class="fil0" d="M5735 10551c23,-30 170,-166 216,-177 129,-30 169,91 117,196 73,1 174,17 218,57 -57,48 -57,67 -160,36 -84,-26 -104,-40 -164,14 15,46 73,87 103,140l-67 48 -131 -157c-33,-35 -112,-122 -132,-157z"/>
   <path class="fil0" d="M14540 10790c93,-95 189,-205 276,-300 31,15 143,119 169,157 60,89 -6,192 -48,239 -171,194 -362,-22 -397,-96z"/>
   <path class="fil0" d="M6617 10840c31,-42 70,-60 113,-103l603 358 -129 99 -125 -70c-45,22 -135,94 -178,132l41 151c-69,34 -66,63 -131,87l-194 -654z"/>
   <path class="fil0" d="M5272 11005c81,-6 233,47 323,59 -45,-69 -161,-127 -185,-200l32 -41c61,16 262,229 318,278 -16,42 -22,36 -46,72l-319 -63 186 184 -47 50 -304 -274c17,-44 19,-31 42,-65z"/>
   <path class="fil0" d="M15172 10830l54 60c-28,45 -269,270 -308,288l-47 -59 301 -289z"/>
   <path class="fil0" d="M13584 10634c186,-61 375,98 401,246 32,180 -124,370 -255,406 -191,52 -374,-103 -400,-253 -33,-185 125,-358 254,-399z"/>
   <path class="fil0" d="M6013 11366c110,-114 277,-248 375,-345 33,23 75,62 90,96 -39,49 -80,61 -119,125 32,59 277,291 338,374 -35,30 -70,72 -106,102 -26,-15 -151,-148 -181,-183 -41,-46 -138,-163 -189,-182 -34,44 -75,92 -122,112 -43,-34 -66,-56 -86,-99z"/>
   <path class="fil0" d="M8648 11196c57,61 116,164 163,236 53,81 115,169 164,248l290 -117 -24 134c151,-21 95,-41 225,19 53,-70 65,-84 169,-103 133,-26 123,-21 220,37 88,-94 197,-100 327,-80 122,-189 193,-462 215,-721 62,70 109,199 134,308 39,164 -6,248 -9,399l125 88c112,-87 308,-68 386,62 87,-46 101,-53 217,-26 139,33 102,42 175,123 57,-30 60,-33 141,-27l-39 -201 286 117c53,-70 111,-166 159,-242 47,-72 117,-189 166,-245l-116 578 285 114c-43,51 -133,97 -188,128l36 95c125,-30 124,-9 218,47 81,47 101,50 120,166 116,-22 135,7 205,61 69,54 107,62 109,186 147,-15 286,114 293,278 152,-2 271,154 259,305 106,9 125,46 175,117 51,73 77,99 50,212 140,24 126,113 204,188l108 -170c6,5 9,6 10,10 1,5 4,7 6,8l111 263 561 -117c-39,58 -443,307 -473,317l115 298 -223 -45c66,95 114,227 46,341 27,30 51,33 74,66 22,33 28,74 37,114 33,143 12,125 -37,223 112,51 143,308 35,371 45,91 72,50 73,206 2,115 -9,157 -82,198 44,78 68,86 54,217 -11,104 -24,141 -102,175 50,108 60,70 30,220 -33,171 -93,122 -116,181 45,45 127,5 198,-7l-112 285c132,123 337,212 484,323l-576 -112c-15,46 -40,101 -57,143l-44 107c-2,3 -8,13 -10,16l-77 -84 -104 41c27,87 10,131 -33,204 -64,109 -43,91 -169,129 12,112 -6,126 -57,198 -51,71 -65,109 -183,108 7,131 -14,126 -79,195 -59,62 -63,97 -192,88 -1,151 -147,274 -299,252 -9,116 -38,117 -108,168 -53,38 -113,96 -203,49 -34,40 -33,84 -79,121 -40,32 -82,40 -121,77l87 62c-43,45 -229,106 -282,121l119 576 -324 -482 -292 115 24 -137c-113,26 -130,49 -226,-16l-12 13c-11,13 -9,11 -17,21 -73,92 -279,113 -361,33 -82,54 -34,73 -188,86 -128,11 -148,-20 -216,-66 -50,68 -84,73 -199,70 -115,-3 -126,-18 -188,-83 -92,48 -94,58 -215,43 -101,-13 -140,-31 -174,-105 -106,49 -85,58 -225,24 -100,-24 -115,-39 -165,-120 -41,13 -78,30 -138,28l40 197 -292 -116c-46,79 -108,167 -157,244 -48,75 -113,185 -165,245l118 -581c-52,-13 -246,-78 -287,-125 47,-19 137,-81 185,-115l-40 -96c-112,34 -134,2 -212,-44 -77,-44 -108,-51 -122,-167 -114,15 -146,-19 -211,-65 -73,-52 -99,-66 -106,-182 -125,8 -130,-21 -195,-82 -56,-54 -102,-72 -94,-196 -152,-4 -281,-151 -260,-305 -111,-12 -122,-48 -173,-115 -63,-85 -76,-86 -56,-213 -191,-74 -96,-96 -197,-186 -31,50 -72,122 -112,163l-119 -274 -566 113c57,-84 386,-243 473,-331l-114 -284 218 42c-30,-31 -52,-102 -70,-159 -31,-95 -7,-119 27,-188 -82,-39 -88,-62 -112,-167 -24,-103 -33,-150 37,-210 -57,-76 -79,-52 -94,-184 -14,-121 2,-159 56,-220 -97,-91 -115,-315 11,-390 -60,-87 -70,-72 -54,-220 14,-135 25,-110 102,-179 -83,-97 -32,-275 9,-323 43,-49 69,-25 69,-83 -43,-24 -124,11 -186,18l113 -280c-90,-110 -363,-218 -480,-328l569 113c39,-79 61,-168 102,-246 14,-28 6,-15 21,-33l65 93 101 -36c-29,-111 -9,-133 39,-212 45,-73 63,-108 167,-116 -28,-146 86,-312 238,-310 -11,-119 26,-138 77,-199 48,-59 74,-96 192,-84 1,-132 34,-128 101,-188 71,-63 76,-83 199,-64 12,-151 174,-248 316,-222 72,-132 71,-124 202,-189 -21,-25 -11,-14 -43,-36 -34,-24 -25,-11 -48,-43l281 -112 -117 -574z"/>
   <path class="fil0" d="M15016 11280c28,-42 273,-262 320,-280 78,124 269,216 66,401 -56,50 -140,103 -235,44 -25,-16 -137,-136 -151,-165z"/>
   <path class="fil0" d="M5421 11492l-100 -26c-38,38 -78,79 -105,129l44 87c-19,36 -22,37 -52,59 -49,-61 -94,-157 -134,-226 -112,-192 -90,-131 -44,-225 106,9 329,99 444,131l-53 71z"/>
   <path class="fil0" d="M15312 11634c68,-57 267,-227 331,-262 19,27 26,29 42,59 -27,40 -288,246 -331,265l-42 -62z"/>
   <path class="fil0" d="M14475 11734l328 -156c41,38 118,117 140,170l-245 204c-58,48 -194,188 -250,209l-90 -116c46,-28 218,-171 254,-218l-309 152c-47,-37 -68,-65 -95,-108 53,-89 136,-184 182,-276 -22,10 -105,82 -125,100 -45,42 -78,76 -126,100 -40,-44 -68,-57 -90,-115l493 -411c40,55 93,98 129,162l-196 303z"/>
   <path class="fil0" d="M5813 11607c28,-32 75,-81 102,-108 47,37 67,56 115,102l238 214c32,33 85,79 124,101 -15,52 -68,101 -104,125 -92,-67 -157,-141 -238,-209l-237 -225z"/>
   <path class="fil0" d="M15682 11719l81 22c34,4 70,6 104,10 76,9 95,44 119,97l-219 -28 -106 279c-1,-2 -5,-9 -6,-6l-46 -49c-33,-61 27,-100 72,-234 -119,-32 -116,10 -198,51 -21,-20 -31,-31 -47,-55 26,-36 282,-220 336,-251l53 65c-39,28 -104,78 -143,99z"/>
   <path class="fil0" d="M4781 11644c8,-32 22,-46 42,-69l336 245 -35 66c-57,-23 -284,-192 -343,-242z"/>
   <path class="fil0" d="M5756 12019c-41,-2 -79,-20 -115,8 -32,24 -48,68 -45,123 99,6 162,-114 266,-152 121,-46 229,41 255,131 38,128 -56,232 -111,289 -75,76 -212,100 -299,18l68 -125c59,12 99,35 152,-10 41,-36 52,-86 37,-144 -91,-27 -156,85 -240,130 -118,62 -230,7 -264,-90 -62,-174 175,-453 372,-302l-76 124z"/>
   <path class="fil0" d="M5010 12045c-112,0 -213,-24 -245,64 50,48 100,60 134,101l-32 61c-47,-10 -308,-183 -357,-224 7,-25 140,-321 282,-226 47,31 57,75 47,149 75,-14 140,-14 222,-12l-51 87z"/>
   <path class="fil0" d="M15676 12148l450 -77 40 75c-37,67 -92,124 -136,184 -44,61 -89,121 -136,177l-50 -83c32,-30 40,-33 59,-76l-78 -139 -103 15 -46 -76z"/>
   <path class="fil0" d="M14898 12756c-45,-44 -71,-88 -101,-131l73 -126c-26,-50 -92,-140 -128,-178l-138 34 -98 -130c68,-31 591,-169 675,-178 22,49 56,69 81,125l-364 584z"/>
   <path class="fil0" d="M4381 12424l72 39c45,-45 75,-126 96,-182 140,36 14,70 -19,218l98 52 101 -205c141,34 -8,111 -70,311 -121,-31 -263,-143 -382,-183 8,-35 108,-257 152,-279 65,37 47,36 7,109 -22,41 -46,80 -55,120z"/>
   <path class="fil0" d="M5228 12698l79 51c71,-61 98,-181 164,-257l112 60 -149 272 111 63 175 -291 116 62c-16,49 -224,408 -252,431l-551 -316 236 -423 117 60 -158 288z"/>
   <path class="fil0" d="M16185 12751l238 -115 35 63 -370 194c-63,-87 -29,-96 18,-172 37,-61 66,-116 99,-168l-231 110 -40 -62c45,-36 327,-180 383,-194 53,156 -36,121 -132,344z"/>
   <polygon class="fil0" points="4244,12711 4555,12861 4527,12936 4198,12791 4154,12903 4089,12879 4225,12574 4289,12598 "/>
   <path class="fil0" d="M14922 12851c37,-33 522,-291 575,-305 32,101 138,227 154,335 39,253 -374,467 -553,279 -57,-60 -142,-226 -176,-309z"/>
   <path class="fil0" d="M4040 12990c67,19 347,127 389,162 -38,131 -71,59 -335,130 68,36 177,66 232,103 1,1 5,4 7,6l-22 61c-48,-6 -370,-136 -392,-161 36,-90 24,-70 135,-87 65,-10 130,-22 194,-30 -37,-44 -176,-90 -234,-110l26 -74z"/>
   <path class="fil0" d="M16523 13044l69 -22 120 310 -60 24 -49 -108 -327 125 -31 -69c38,-34 278,-124 320,-136l-42 -124z"/>
   <path class="fil0" d="M4893 13077c10,-50 35,-117 63,-148l504 450 -50 144 -685 -26 56 -157 435 22 -323 -285z"/>
   <path class="fil0" d="M15947 13590l56 139c-74,42 -307,115 -395,140 -174,50 -264,-21 -313,-165 -60,-181 0,-271 147,-329 99,-39 297,-115 393,-134l50 151c-94,21 -195,62 -283,93 -91,31 -213,46 -174,174 49,161 274,-14 519,-69z"/>
   <path class="fil0" d="M16370 13665l-21 -73c43,-36 331,-139 397,-146l26 78 -402 141z"/>
   <path class="fil0" d="M3878 13701l88 22 55 -199 56 12c19,51 -35,142 -38,207l99 31c36,-73 40,-166 77,-221l59 16 -85 304c-71,-9 -355,-87 -404,-117 7,-51 26,-105 40,-152 6,-24 12,-44 19,-69l32 -72 45 11c21,70 -41,153 -43,227z"/>
   <path class="fil0" d="M4642 13743l46 -138c73,13 566,183 610,213l-47 140c-91,-23 -566,-181 -609,-215z"/>
   <path class="fil0" d="M16623 13996l260 -55 13 66c-38,25 -52,25 -98,34 -86,18 -270,78 -315,54l-14 -79 219 -207 -261 52 -13 -68c54,-37 328,-91 412,-100 22,115 -2,97 -73,165 -47,45 -101,81 -130,138z"/>
   <polygon class="fil0" points="4114,14159 4099,14240 3790,14244 4076,14324 4061,14396 3650,14298 3679,14175 3965,14169 3722,14029 3746,13906 4154,14002 4139,14078 3842,14008 "/>
   <path class="fil0" d="M4576 13967l631 140c-22,159 -14,140 -151,188 -89,31 -177,63 -266,89 55,37 253,72 334,84l-30 144 -631 -141c18,-168 23,-143 165,-190 93,-31 175,-55 262,-90l-345 -85 31 -139z"/>
   <path class="fil0" d="M15432 14096l627 -144c34,74 101,377 75,454 -18,55 -81,104 -151,113 -106,13 -133,-36 -186,-84 -24,23 -26,36 -50,62 -20,23 -35,37 -56,58 -41,42 -76,84 -120,116 -22,-34 -32,-92 -40,-135 -21,-125 215,-148 188,-340l-253 53 -34 -153z"/>
   <path class="fil0" d="M16714 14502l3 -18c2,-19 1,-10 1,-29 0,-31 -7,-12 0,-53l62 -9 32 177c-56,15 -116,32 -174,26 -56,-64 -112,-128 -91,-250 17,-92 92,-151 193,-163 255,-30 325,298 146,365 -46,-155 31,-52 20,-176 -6,-79 -70,-113 -154,-102 -197,26 -149,259 -38,232z"/>
   <path class="fil0" d="M3836 14730l103 11c2,-4 4,-13 4,-11 6,17 30,-196 46,-219l49 4c15,65 -11,259 -36,315l-411 -45c3,-72 13,-264 46,-310l45 4c28,61 -6,161 -10,231l88 9 30 -207 65 5 -19 213z"/>
   <path class="fil0" d="M16764 15015l12 -41c2,-13 0,-40 2,-59l67 0 14 180 -170 12c-141,-160 -94,-410 150,-408 247,2 271,348 101,375 -56,-120 28,-54 34,-163 3,-72 -44,-117 -111,-124 -215,-21 -229,223 -99,228z"/>
   <polygon class="fil0" points="15567,14699 16233,14890 16248,15046 15624,15359 15610,15189 15743,15124 15723,14899 15580,14864 "/>
   <path class="fil0" d="M4441 14718c121,4 314,19 432,39 151,27 208,106 193,278 -29,337 -332,228 -678,204l11 -153c258,-23 520,124 528,-75 7,-150 -226,-99 -507,-140 1,-54 0,-112 21,-153z"/>
   <path class="fil0" d="M3568 15000l7 -102c48,31 101,120 150,157l269 -133 -4 106 -203 94c55,120 110,57 183,104l-3 71c-95,-5 -355,-12 -421,-46l5 -73 176 13 -159 -191z"/>
   <polygon class="fil0" points="16647,15238 17068,15219 17067,15301 16646,15319 "/>
   <path class="fil0" d="M4604 17585l245 -1 78 -234 83 233 247 2c-46,55 -136,100 -191,154l70 235c-76,-36 -129,-100 -205,-138 -78,36 -119,98 -203,135l70 -231c-61,-55 -150,-97 -194,-155z"/>
   <path class="fil0" d="M15316 17585l240 0c24,-48 66,-179 78,-238 44,56 55,161 90,237l241 0 -42 43c-50,38 -99,63 -147,112l72 237c-74,-38 -133,-100 -202,-138 -57,17 -150,103 -211,138l74 -236c-32,-32 -63,-52 -93,-73l-100 -82z"/>
   <path class="fil0" d="M6691 17866c46,78 75,182 112,262 114,251 284,509 446,710 116,144 244,285 369,398 170,154 222,212 423,356 1402,1001 3279,1022 4659,0 310,-230 545,-464 785,-760 109,-135 218,-288 318,-449l283 -496c27,321 -22,696 -84,997 -42,201 -110,429 -185,619 -26,64 -64,134 -81,197l183 -157c16,-19 13,-20 29,-34 30,-28 9,-13 44,-29 -45,363 -314,805 -487,1018 -235,287 -453,485 -792,715 -569,387 -1467,682 -2330,678 -1183,-5 -2475,-531 -3125,-1390 -189,-249 -429,-625 -484,-1035 74,37 166,187 265,242l-155 -391c-128,-374 -274,-1079 -193,-1451z"/>
   <path class="fil1" d="M10319 6074c60,-26 140,35 195,61l537 267c1620,830 3203,1834 4606,2932 204,159 403,313 603,477l735 623c224,184 486,446 703,641 186,167 791,770 942,942l252 276c40,41 109,91 110,155 3,108 -44,365 -60,486 -21,156 -42,316 -65,470 -460,3137 -1561,6199 -2968,8870 -63,120 -124,239 -185,356 -28,54 -16,48 -77,61 -370,78 -888,163 -1252,217 -2699,402 -5315,379 -8014,1 -107,-15 -1334,-201 -1380,-238 -83,-65 -843,-1623 -912,-1777 -975,-2154 -1629,-4148 -2083,-6525 -118,-619 -203,-1232 -296,-1862 -20,-131 13,-125 71,-194l388 -416c181,-196 465,-465 668,-676 44,-45 91,-83 139,-126 44,-39 87,-87 140,-136 220,-204 608,-560 848,-760l439 -365c956,-780 2088,-1599 3144,-2233 224,-134 451,-268 675,-405 375,-230 1705,-950 2097,-1122zm-8892 6262c0,175 41,362 66,536 25,171 53,366 81,535 114,695 227,1384 398,2064 43,170 79,332 120,496 41,165 83,328 126,490 126,476 261,952 416,1418 252,756 533,1528 829,2250 57,139 117,281 183,420 33,72 61,142 92,210 220,491 463,976 703,1457 35,70 70,125 105,197 38,76 75,135 109,205 18,36 31,63 52,98 81,133 60,216 224,242 178,28 340,63 524,91l3018 361c138,0 455,37 578,38 50,1 101,-1 151,-1 73,0 86,12 150,14 703,21 1421,8 2124,0l289 -13c68,0 87,-8 138,-12 56,-5 101,2 158,-6l1128 -90c364,-50 727,-67 1090,-129 175,-30 347,-55 523,-79 61,-9 941,-153 1033,-186 64,-23 90,-125 121,-181l314 -603c70,-141 136,-273 205,-411 67,-134 128,-268 197,-406 36,-72 60,-134 96,-205 161,-316 518,-1164 647,-1489 115,-287 242,-584 340,-879 99,-300 222,-603 314,-905 47,-155 102,-312 150,-465 201,-629 382,-1271 522,-1916 109,-498 226,-1005 309,-1513 72,-436 144,-886 198,-1323 13,-106 28,-181 28,-285 0,-64 -969,-1049 -1052,-1122l-125 -113c-43,-43 -77,-76 -120,-119l-948 -861c-217,-211 -1220,-998 -1410,-1140l-425 -316c-370,-279 -752,-540 -1138,-798 -483,-322 -982,-628 -1482,-929 -107,-65 -206,-116 -311,-179l-777 -430c-56,-28 -99,-53 -155,-84 -148,-79 -927,-481 -988,-481 -63,0 -1048,545 -1269,653 -155,76 -305,177 -460,256l-773 446c-455,274 -888,557 -1331,841l-576 392c-469,334 -934,670 -1383,1029l-668 551c-152,127 -311,250 -452,390l-816 754c-85,85 -160,160 -245,245 -164,164 -319,320 -484,484 -46,45 -67,81 -113,126 -40,39 -348,354 -348,380z"/>
   <path class="fil2" d="M10322 6289c56,-25 130,32 182,57 61,28 118,57 178,86l1035 536c488,266 858,491 1326,772 716,430 1858,1227 2476,1719l588 467c101,78 190,158 288,241 93,79 184,160 279,236 100,80 181,166 279,248l686 633c298,272 512,519 784,787 47,46 78,92 124,140 320,329 247,208 179,742 -203,1580 -578,3227 -1072,4696 -608,1810 -1207,3146 -2063,4760 -46,86 -68,68 -175,89 -2981,591 -5921,612 -8931,197 -109,-15 -1300,-195 -1350,-235 -13,-11 -161,-286 -185,-329 -245,-455 -473,-915 -699,-1399 -906,-1938 -1589,-4052 -2034,-6361 -115,-599 -200,-1198 -286,-1810 -17,-123 -2,-109 57,-179l255 -272c44,-49 80,-91 125,-140 179,-196 1149,-1143 1335,-1290l846 -725c577,-484 1173,-912 1792,-1349 408,-288 834,-553 1270,-827 575,-361 2042,-1191 2711,-1490zm-3 -215c-392,172 -1722,892 -2097,1122 -224,137 -451,271 -675,405 -1056,634 -2188,1453 -3144,2233l-439 365c-240,200 -628,556 -848,760 -53,49 -96,97 -140,136 -48,43 -95,81 -139,126 -203,211 -487,480 -668,676l-388 416c-58,69 -91,63 -71,194 93,630 178,1243 296,1862 454,2377 1108,4371 2083,6525 69,154 829,1712 912,1777 46,37 1273,223 1380,238 2699,378 5315,401 8014,-1 364,-54 882,-139 1252,-217 61,-13 49,-7 77,-61 61,-117 122,-236 185,-356 1407,-2671 2508,-5733 2968,-8870 23,-154 44,-314 65,-470 16,-121 63,-378 60,-486 -1,-64 -70,-114 -110,-155l-252 -276c-151,-172 -756,-775 -942,-942 -217,-195 -479,-457 -703,-641l-735 -623c-200,-164 -399,-318 -603,-477 -1403,-1098 -2986,-2102 -4606,-2932l-537 -267c-55,-26 -135,-87 -195,-61z"/>
   <path class="fil3" d="M10145 19137c145,6 75,24 150,33 52,7 123,-16 191,-16 -40,79 -78,73 -179,71 -75,-2 -142,-5 -162,-88zm392 14c155,-6 84,22 171,17 68,-3 81,-38 172,-31 -68,119 -315,115 -343,14zm389 -26c160,-28 70,43 255,-34 29,-12 55,-16 84,-20 -24,83 -61,86 -152,104 -81,15 -151,28 -187,-50zm-1174 -43c95,11 85,31 144,47 48,13 134,-1 198,4 -27,71 -90,63 -177,53 -103,-12 -132,-16 -165,-104zm963 27c13,-37 -2,-25 61,-34 80,-12 245,-49 282,-17 -25,33 -305,75 -343,51zm595 -53c95,-23 154,-2 238,-48 -8,82 -9,73 -92,93 -66,17 -113,13 -146,-45zm-1159 -17c33,-71 80,-66 169,-64 82,2 145,3 166,81 -159,4 -72,-28 -166,-28 -77,0 -74,22 -169,11zm-781 -51c157,29 46,68 247,71 93,2 81,21 88,27 -65,50 -92,42 -186,20 -86,-20 -133,-29 -149,-118zm1164 64c27,-73 66,-73 162,-81 95,-8 138,-3 173,60 -111,29 -79,-8 -160,-8 -65,1 -79,30 -175,29zm-976 -57c41,-27 121,4 171,13 34,5 63,10 97,16 55,9 57,0 75,34 -38,29 -190,-14 -270,-27 -55,-9 -56,1 -73,-36zm1541 63c14,-27 -5,-12 25,-25l140 -35c54,-14 127,-43 171,-28 -21,52 -143,60 -247,88 -94,26 -69,14 -89,0zm-993 -23c-171,-3 -42,-56 -239,-39 -38,3 -60,-3 -95,-7 42,-76 100,-60 185,-49 92,13 124,23 149,95zm1368 -65c10,-17 -22,-20 92,-47 -1,6 8,58 -54,60 -68,4 -17,3 -38,-13zm-562 55c24,-73 61,-79 146,-95 82,-15 142,-34 184,46 -97,19 -96,-7 -168,5 -72,11 -50,40 -162,44zm-1731 -74c57,-5 103,-3 143,28 -33,24 -66,38 -122,28l-21 -56zm3 -69c16,-8 -25,-32 90,4 28,9 57,17 88,26l128 34c47,23 16,-7 27,37 -45,16 -178,-38 -257,-58 -111,-30 -56,-25 -76,-43zm219 0c63,-52 99,-34 180,-15 92,21 123,24 145,107 -109,-3 -73,-33 -149,-55 -57,-16 -89,1 -137,-12 -41,-12 1,2 -19,-7 -20,-11 -12,-10 -20,-18zm1882 78c16,-69 47,-83 115,-104 59,-18 134,-56 183,1 -31,82 -55,13 -151,44 -67,22 -43,42 -147,59zm-2121 -178c35,-72 167,-17 192,96 -65,-13 -59,-7 -104,-46 -41,-35 -52,-21 -88,-50zm2990 51l-72 -45c62,-36 80,-5 143,-48 59,-39 23,-50 125,-87 -8,78 -18,88 -69,117 -34,20 -87,51 -127,63zm-3520 -152c26,5 29,6 50,16l41 35 -57 38 -34 -89zm57 -95c59,-30 164,-39 146,56 -65,-14 -105,-7 -146,-56zm3307 126c21,-132 218,-214 293,-156 -53,65 -83,32 -149,64 -78,38 -32,60 -144,92zm-3518 -175c47,-10 285,112 308,157 -50,26 -118,-33 -167,-60 -108,-58 -123,-44 -141,-97zm3705 151c11,-46 258,-190 286,-187 1,3 2,5 2,8 0,4 2,6 1,8 -9,28 -241,181 -289,171zm203 -55c16,-28 -5,-6 26,-31 44,-37 72,-17 126,-50 70,-42 29,-65 136,-115 -6,98 -38,111 -99,152 -71,49 -86,70 -189,44zm-4086 -162c93,43 69,70 123,107 52,36 107,33 170,78 -61,56 -131,5 -183,-27 -62,-37 -119,-55 -110,-158zm3136 -27l251 157c50,-68 35,-207 75,-276 46,88 53,319 105,389 15,20 255,172 294,197l-227 99 81 369 -200 -312c-70,8 -158,64 -237,83 10,-72 28,-138 43,-209 19,-91 45,-116 -2,-192 -61,-99 -124,-198 -183,-305zm-2276 700l-240 -95c-16,48 -161,280 -194,319l82 -373 -227 -87 72 -58c31,-19 47,-31 76,-49 38,-24 130,-71 148,-103 19,-32 82,-336 102,-403l66 295 261 -159c-173,354 -243,252 -189,498 15,70 32,143 43,215zm-800 -762c112,-34 283,63 291,188 -28,-11 -62,-23 -78,-40 -28,-29 -13,-38 -60,-66 -68,-41 -106,-16 -153,-82zm3968 151c6,-95 34,-103 95,-145 67,-46 84,-67 185,-48 -47,86 -79,39 -147,85 -53,36 -32,71 -133,108zm-4169 -226c51,6 114,60 158,89 45,30 116,61 136,107 -39,26 -71,-15 -158,-73 -91,-60 -134,-68 -136,-123zm4351 191c18,-70 238,-222 269,-228 4,50 -4,41 -40,69 -70,54 -167,146 -229,159zm-2204 102c-93,-57 -62,-367 -62,-534 0,-649 -17,-4218 11,-4271l38 0c58,153 -48,4596 33,4808 233,22 254,-61 253,-273 0,-179 0,-358 0,-537 245,34 493,91 735,131 125,21 87,-7 181,246 36,95 92,220 114,313l-324 -191 305 516c-115,-19 -290,12 -329,126 -92,-42 -77,-58 -209,-32 -119,23 -101,20 -169,91 -66,-43 -86,-59 -201,-49 -130,10 -96,18 -176,72 -75,-53 -52,-66 -175,-69 -142,-4 -111,1 -202,52 -117,-109 -230,-118 -376,-55 -87,-116 -247,-153 -365,-94l-71 -85c-30,-22 -78,-35 -115,-47l254 -427 -320 182c22,-90 148,-335 197,-450 33,-78 22,-92 108,-107 122,-20 244,-41 365,-62 109,-19 264,-55 369,-60 7,149 2,310 2,460 0,167 -31,322 129,346zm-2322 -371c89,46 70,82 124,125 44,36 122,42 150,99 -102,20 -291,-74 -274,-224zm4726 182c17,-59 87,-56 135,-91 67,-49 35,-94 126,-132 7,105 -27,120 -81,164 -55,43 -73,89 -180,59zm-4652 -266c88,-12 124,22 174,59 63,46 90,57 95,157 -145,-51 -3,-58 -211,-155 -23,-11 -18,-6 -36,-25 -23,-24 -16,-26 -22,-36zm4580 175c-1,-89 38,-117 86,-160 49,-44 83,-72 173,-59 -52,85 -70,48 -136,97 -69,51 -13,66 -123,122zm-4781 -266c47,5 174,117 219,156 41,35 57,30 51,76 -47,-5 -157,-115 -210,-156 -28,-21 -54,-27 -60,-76zm-161 -98c77,49 50,74 110,135 57,58 96,37 143,115 -102,8 -135,-28 -182,-77 -41,-44 -92,-76 -71,-173zm5124 307c-4,-62 124,-156 169,-202 32,-32 29,-44 78,-44 -6,58 -198,241 -247,246zm186 -109c34,-84 86,-51 133,-106 47,-53 27,-93 104,-136 17,135 -139,288 -237,242zm-5229 -264c74,-34 117,24 158,59 57,47 91,62 91,174 -119,-59 -48,-65 -113,-127 -59,-56 -91,-21 -136,-106zm5147 183c-15,-101 96,-252 231,-242 -13,79 -75,64 -120,112 -44,47 -50,107 -111,130zm-5086 -50c-47,2 -82,-53 -141,-113 -35,-36 -99,-87 -115,-135 51,-2 53,21 84,53 36,37 171,152 172,195zm5259 -24c-5,-51 8,-42 38,-81 36,-49 126,-184 183,-189 -3,52 -62,104 -99,148 -63,76 -69,117 -122,122zm-5667 -339c38,15 11,-4 39,26 44,45 26,80 66,123 51,55 85,42 129,115 -115,17 -252,-126 -234,-264zm5837 217c52,-114 73,-52 121,-121 38,-56 29,-111 97,-150 13,101 -3,114 -55,180 -48,62 -57,98 -163,91zm-5521 -23c-101,-48 -40,-82 -110,-147 -44,-40 -90,-57 -116,-115 91,-8 121,42 167,90 43,45 76,84 59,172zm5436 -51c-24,-106 83,-286 209,-263 -33,86 -65,59 -113,119 -47,58 -28,105 -96,144zm-5610 -74c-20,7 25,20 -24,3 -16,-5 -199,-222 -206,-270 45,2 53,23 80,58 41,53 153,171 150,209zm5777 -21c-21,-40 43,-112 73,-156 57,-84 58,-123 113,-138 2,57 -56,122 -84,167 -27,42 -60,110 -102,127zm-6100 -191c-45,-59 -82,-91 -41,-187 73,74 37,99 89,164 40,49 73,58 112,124 -97,11 -118,-44 -160,-101zm6252 51c41,-113 72,-67 111,-140 32,-60 20,-110 73,-154 38,101 -31,287 -184,294zm-6009 -14c-30,-20 -40,-25 -55,-77 -41,-142 -83,-73 -138,-203 102,8 103,39 152,103 30,40 65,76 58,135 -5,39 -10,30 -17,42zm5914 -51c-22,-99 -7,-101 38,-181 36,-64 52,-100 143,-105 -33,116 -54,58 -100,136 -35,60 -12,109 -81,150zm341 -357c42,17 34,21 48,56 -32,23 -42,31 -98,29l50 -85zm-6495 117c29,41 84,109 86,159 -58,-4 -201,-253 -198,-297 52,15 58,60 112,138zm6301 127c4,-34 106,-291 174,-310 -11,70 -77,178 -111,251 -28,58 -9,48 -63,59zm-6501 -355c19,61 -2,82 48,140 41,46 53,38 83,116 -98,-11 -162,-104 -180,-193 20,-38 16,-38 49,-63zm6557 140c0,0 -20,-4 -26,-52 -4,-39 21,-112 45,-144 15,-21 0,-4 22,-19 31,68 19,34 3,104 -14,63 -3,63 -44,111zm-6519 -202c33,44 56,79 37,115 -45,-21 -58,-75 -56,-89 4,-30 17,-24 19,-26zm188 263c-11,-8 -8,-3 -21,-17l-28 -60c-34,-182 -81,-77 -116,-222 124,17 217,211 165,299zm5780 -427l544 139c-22,114 -73,93 -30,239 -83,11 -110,45 -145,106 -43,74 -69,103 -51,213 -149,10 -234,170 -229,295 -151,1 -257,148 -255,269 -160,-13 -279,134 -283,240 -115,-18 -136,9 -205,58 -106,74 -58,53 -114,149 -89,-26 -138,0 -202,37 -87,51 -79,48 -125,136 -69,-17 -59,-30 -77,-107 -19,-77 -88,-392 -118,-453 -1,-3 -4,-7 -6,-10l-29 80c-16,67 -45,216 -71,256 -48,-130 -96,-257 -147,-394 -74,-196 -80,-139 81,-364 68,-94 414,-604 463,-642 151,-117 471,-322 653,-453 212,-152 161,-148 346,-60 124,59 252,109 370,172l-370 94zm-3984 1634l-95 -362c-54,120 -72,379 -131,478 -82,-22 -74,-29 -163,-9 -48,-102 -27,-91 -122,-148 -64,-39 -115,-69 -203,-52 -21,-102 -33,-110 -102,-159 -73,-53 -83,-86 -201,-76 -9,-143 -145,-266 -277,-263 3,-153 -129,-282 -248,-292 12,-124 -6,-126 -62,-202 -92,-123 -40,-50 -154,-122 18,-78 8,-113 -27,-174 -37,-67 -43,-84 -95,-133 -2,-2 -5,-5 -8,-7 127,-72 369,-66 505,-135l-362 -93c58,-39 303,-121 386,-151 210,-77 137,-92 362,69 107,76 218,151 325,229 57,42 104,75 161,115 40,30 130,83 160,116l562 808c23,34 31,47 11,92 -14,30 -30,64 -44,95 -40,88 -132,315 -178,376zm1505 -1848c54,-90 331,-153 568,-12 194,115 231,204 533,220 0,45 17,74 -119,62 -388,-36 -441,-429 -978,-199l-4 -71zm-1477 214c185,-72 19,95 513,-226 177,-115 364,-114 561,-9l0 85c-104,-15 -158,-66 -297,-60 -261,11 -377,238 -653,265 -80,8 -119,22 -124,-55zm4666 -170c15,-78 34,-102 109,-118 -9,89 -19,108 -109,118zm-200 104c-37,-81 -112,-177 -158,-259 89,40 215,127 303,184 98,64 282,-23 408,-38l-92 232 307 202 -365 -82c-12,49 -70,195 -98,227 -18,-33 -175,-279 -196,-293 -31,-22 -150,-43 -197,-54 -78,-18 -176,-31 -191,-59l279 -60zm-6933 -141c121,18 304,104 403,43 84,-52 227,-154 307,-182l-158 256 291 67c-84,41 -333,63 -398,101 -44,25 -150,233 -204,294 -28,-28 -83,-176 -96,-227l-369 77 314 -198 -90 -231zm259 -100c12,31 25,70 37,99 -58,2 -47,-19 -70,-78 -18,-45 -44,-79 -23,-115 37,15 8,-30 56,94zm7016 110c-26,-39 -6,-59 15,-140 13,-51 11,-93 48,-112 27,36 0,88 -12,135 -30,118 -15,93 -51,117zm79 -101c23,-147 40,-68 61,-152 11,-42 6,-124 13,-180 75,44 57,106 39,194 -18,87 -27,121 -113,138zm-7144 63c-88,-19 -92,-56 -121,-141 -32,-97 -38,-115 10,-191 19,16 11,-10 29,40 17,46 -8,70 9,129 18,67 52,76 73,163zm1 -355c107,28 176,218 106,325 -61,-55 -19,-95 -39,-161 -22,-74 -47,-58 -67,-164zm7041 259c-59,-58 -43,-102 -24,-193 16,-72 35,-124 106,-129 -5,43 -2,54 -23,86 -83,129 2,142 -59,236zm-7078 -280c15,55 45,124 32,170 -43,-15 -35,-24 -49,-78 -8,-31 -16,-60 -24,-88 -14,-52 -51,-125 -30,-170 36,11 10,-22 33,27l38 139zm7189 125c-38,-31 -15,-69 2,-179 5,-34 9,-64 14,-98 8,-60 -2,-48 38,-66 15,38 -14,301 -54,343zm-7263 -130c-82,-15 -89,-64 -108,-153 -19,-84 -29,-136 36,-183 18,24 22,51 20,82 -16,186 18,96 52,254zm38 -349c95,36 115,196 111,249 -6,77 -46,79 -46,79 -6,-9 -3,5 -15,-26 -15,-36 -10,-41 -7,-62 20,-174 -38,-85 -43,-240zm7346 132c8,-46 -7,-122 -4,-185 74,34 67,97 57,189 -8,84 -23,131 -99,151 9,-101 36,-92 46,-155zm-141 133c-8,-4 -47,-4 -57,-79 -4,-36 2,-75 6,-111 9,-90 16,-117 91,-143 0,46 4,61 -13,97 -12,26 -24,15 -28,73 -5,57 10,84 1,163zm-7267 -191c-13,-81 -55,-237 -23,-274 36,29 77,307 63,345 -40,-14 -32,-21 -40,-71zm23 -454c78,29 76,82 86,172 10,90 5,128 -55,163 -37,-105 9,-83 1,-171 -6,-72 -32,-61 -32,-164zm-71 342c-82,-22 -83,-74 -94,-173 -10,-90 -2,-143 67,-169 2,41 7,57 -2,97 -32,150 13,100 29,245zm7289 -279c0,-79 17,-109 76,-132 5,107 -24,97 -24,170 0,63 21,77 17,167 -82,-36 -69,-106 -69,-205zm173 -128c75,27 76,85 77,179 0,92 -9,139 -84,164 1,-99 32,-110 30,-177 -2,-53 -20,-93 -23,-166zm-39 158c-39,-32 -28,-117 -31,-168l-7 -150c4,-24 5,-15 13,-28 37,22 26,22 29,77 3,63 30,222 -4,269zm-7386 44c-22,-7 -28,30 -33,-76l-12 -199c-3,-57 -12,-49 20,-69 30,34 46,302 25,344zm-25 -387c-19,-40 -5,-209 -1,-278 3,-58 -8,-44 26,-65 14,20 9,-20 16,40l-6 151c-7,165 6,135 -35,152zm78 37c1,-60 -20,-81 -17,-168 106,49 98,308 -7,331 -7,-149 23,-71 24,-163zm-123 162c-74,-28 -73,-76 -74,-175 0,-99 5,-143 84,-166 -7,232 -61,-18 -10,341zm7393 -61c-65,-28 -74,-71 -84,-155 -13,-106 -17,-115 44,-184 10,12 11,-9 22,43 4,17 3,24 0,40 -6,32 -17,27 -15,79 2,71 33,73 33,177zm72 -346c80,29 81,70 92,169 10,90 13,141 -63,175 -12,-98 19,-112 9,-183 -7,-58 -29,-79 -38,-161zm-17 79c18,104 4,68 -4,83 -38,-21 -13,21 -31,-38l-20 -129c-9,-52 -37,-133 -12,-175 39,15 27,11 36,73l31 186zm-7339 -47c3,-124 26,-76 39,-152 12,-74 -28,-109 10,-177 61,41 52,92 43,182 -8,78 -22,128 -92,147zm7246 -67c-69,-26 -79,-67 -97,-149 -22,-95 -31,-134 36,-185 42,103 -3,82 14,171 14,72 45,57 47,163zm-7342 48c-69,-10 -66,-95 -59,-172 9,-94 15,-150 101,-162 -3,27 -4,57 -15,83 -13,32 -24,23 -32,69 -8,49 8,117 5,182zm7444 -61c-26,-95 7,-109 -7,-176 -14,-63 -42,-77 -57,-164 86,29 88,67 108,160 20,87 24,146 -44,180zm-3508 -675c49,-75 270,-119 376,-110 331,29 565,366 1102,375l-361 2181c-258,13 -369,-122 -528,-217 -226,-135 -348,-100 -589,-16l0 -2213zm-1872 264c332,-4 504,-119 742,-241 107,-55 221,-121 357,-133 116,-10 297,33 371,98l-2 2219c-103,-26 -165,-69 -297,-68 -328,3 -446,330 -815,307l-356 -2182zm-1994 285c-30,-36 7,-200 19,-276 9,-55 -1,-46 31,-66 31,37 -17,320 -50,342zm7275 -224c15,55 42,116 35,177 -44,-15 -33,-21 -48,-76 -20,-76 -78,-218 -52,-262 34,15 9,-20 31,31l34 130zm-7200 55c16,-144 31,-68 55,-151 16,-54 0,-100 21,-178 61,43 51,97 32,184 -18,86 -25,126 -108,145zm7123 -67c-77,-20 -89,-60 -113,-138 -27,-85 -50,-120 12,-186 62,76 12,86 35,164 21,73 50,54 66,160zm-7217 34c-72,-16 -55,-110 -41,-178 18,-85 33,-131 115,-150 -17,110 -43,80 -61,151 -11,46 -5,117 -13,177zm7317 -61c-44,-83 -3,-101 -31,-179 -20,-58 -60,-79 -67,-152 84,25 89,51 118,138 25,71 53,149 -20,193zm-7215 -116c-48,-14 -19,-58 -4,-116 31,-121 14,-112 59,-136 6,12 23,-16 1,70 -7,24 -11,37 -16,60 -10,39 -16,86 -40,122zm7129 -46c-58,-21 -84,-144 -99,-199 64,7 48,22 73,86 18,46 39,72 26,113zm-7047 -113c11,-89 24,-110 110,-121 -7,73 -41,107 -110,121zm6569 2362c-88,-26 -248,-107 -339,-150 -231,-112 -194,-43 -232,-257l-143 -836 147 -830c43,-242 -3,-193 217,-272 106,-38 252,-107 362,-128l-190 323c72,-31 181,-104 252,-148 128,-78 182,-140 250,-100 -26,100 -34,102 2,214 26,82 44,115 111,148 -40,88 -49,96 -22,215 28,126 34,95 96,164 -61,70 -61,85 -47,202 11,88 19,130 79,160 -49,89 -69,54 -67,204 1,113 13,125 60,189 -63,43 -73,57 -84,163 -15,133 -12,118 39,215 -67,24 -86,66 -103,149 -27,129 -23,108 17,217 -85,27 -70,49 -119,116l-474 -280 188 322zm-6131 -2498c65,20 526,221 544,259 8,17 176,937 167,1018l-182 1000 -543 196 191 -324c-58,21 -196,113 -254,149 -128,79 -180,138 -250,102 20,-118 43,-73 -3,-211 -26,-77 -43,-127 -114,-149 48,-97 53,-91 25,-214 -30,-130 -28,-91 -94,-168 54,-71 57,-82 44,-199 -9,-73 -7,-92 -46,-140l-31 -38c94,-119 85,-253 7,-377 68,-74 71,-49 84,-179 10,-100 6,-138 -43,-194 78,-54 79,-42 104,-159 27,-129 23,-106 -17,-209 105,-52 65,-64 122,-124l478 282 -189 -321zm5966 -130c85,-42 325,-61 398,-100 48,-26 150,-232 205,-295 43,44 78,159 99,226l358 -80 -303 203 90 229c-112,-15 -308,-98 -399,-46 -83,48 -224,156 -304,181 25,-71 115,-177 152,-247 -55,-25 -221,-53 -296,-71zm-3148 -358l96 -1 1 114 -98 -3 1 -110zm3500 54c47,35 68,83 38,120 -35,-38 -62,-79 -38,-120zm-6843 108c11,-40 28,-74 45,-117l38 -88c11,-17 7,-11 18,-22 26,46 169,281 201,299 67,36 308,61 398,102l-297 68 158 256c-86,-39 -219,-129 -301,-184 -98,-64 -209,15 -410,38l92 -227c-24,-27 -107,-74 -148,-99 -29,-18 -47,-29 -78,-47 -20,-13 -69,-40 -75,-61l359 82zm300 -12c4,-62 24,-150 60,-187 41,71 12,155 -32,216l-28 -29zm6419 -54c-45,-77 -67,-84 -39,-188 75,28 43,92 81,160 34,62 75,44 91,138 -91,-11 -95,-46 -133,-110zm-6542 -149c24,-29 37,-40 90,-32l-39 84c-45,-19 -28,-12 -51,-52zm6738 166c-19,-57 -8,-100 -52,-148 -21,-22 -65,-46 -79,-114 62,6 89,26 119,74 63,98 90,129 12,188zm-6666 -54c-16,-43 34,-113 56,-156 25,-49 45,-123 94,-149 8,14 27,-22 7,47l-61 117c-47,93 -51,133 -96,141zm6545 -125c29,42 39,34 32,83 -46,-8 -194,-243 -199,-298 54,9 36,8 69,61l98 154zm-6417 -10c40,-116 54,-56 99,-126 43,-66 7,-86 74,-154l20 43c9,52 -22,92 -47,133 -35,61 -49,110 -146,104zm6290 -55c-124,-7 -233,-170 -197,-284 79,47 40,93 90,155 48,59 71,38 107,129zm-6381 -5c-50,-68 -10,-124 25,-181 44,-71 42,-105 154,-106 -36,100 -69,65 -106,128 -21,36 -26,89 -49,128l-24 31zm6469 -54c-8,-8 -5,-2 -19,-19 -2,-3 -9,-11 -11,-14 -10,-15 -14,-25 -20,-45 -44,-157 -100,-99 -147,-208 100,-4 121,47 163,106 35,50 86,108 34,180zm-6321 -84c-1,-5 -7,-8 -4,-26 0,-3 5,-13 6,-16l75 -116c49,-71 64,-124 111,-131 6,50 -52,120 -81,162 -69,99 -61,131 -107,127zm6087 -198c52,71 95,93 103,159 -54,-14 -38,-14 -76,-60 -41,-49 -149,-174 -155,-219 48,4 86,62 128,120zm-5945 79c42,-105 62,-55 113,-124 46,-62 23,-108 98,-141 15,105 -11,113 -60,179 -39,54 -59,90 -151,86zm3345 -200c35,-22 618,-118 703,-126l585 843 839 594c10,137 -168,832 -173,1014 -5,159 156,793 169,1030l-843 594 -590 846 -823 -147 0 -1035c234,-79 338,-123 571,15 150,90 295,217 537,177 13,-26 11,-49 21,-65 22,-37 7,-7 54,-33l373 -2306c-369,-9 -523,-81 -787,-233 -95,-54 -230,-124 -359,-142 -189,-26 -265,30 -410,80l3 -389 169 -6 3 -119 354 -3c-52,-86 -332,-386 -396,-589zm2297 -115c85,27 51,78 110,140 42,46 96,56 115,123 -112,-4 -104,-39 -159,-92 -52,-49 -78,-73 -66,-171zm-5727 248c-45,-97 70,-288 209,-272 -35,83 -79,63 -125,126 -38,52 -29,94 -84,146zm1189 -914c91,29 134,-2 199,-38 113,-61 67,-53 128,-136 80,31 60,25 82,119 22,97 90,408 119,461 54,-88 42,-258 103,-342 50,125 100,267 150,401 33,86 74,129 23,202l-339 478c-40,58 -189,285 -227,313l-808 563c-62,37 -128,-17 -195,-47 -73,-34 -322,-135 -366,-175l366 -91c-102,-57 -466,-92 -550,-148 34,-106 65,-97 31,-230 102,-15 108,-47 153,-123 55,-92 53,-76 43,-195 136,-11 237,-169 225,-293 117,-8 116,-27 173,-89 56,-61 85,-68 84,-182 122,9 129,-26 196,-78 109,-84 46,-68 96,-161 124,23 257,-80 294,-165l20 -44zm4791 790c-82,-187 -101,-73 -169,-198 107,-9 131,38 174,91 34,42 96,91 53,174l-58 -67zm-1480 -354c59,-102 73,-370 131,-475 53,15 93,34 146,4l31 49c45,92 192,174 310,153 12,102 47,123 109,168 63,46 90,73 194,69 2,109 43,126 96,182 48,50 79,79 180,82 -9,117 23,126 78,188 50,57 57,92 167,101 -18,237 213,323 217,327 -29,93 13,164 76,255l58 63 -505 129 356 89c-30,30 -60,34 -99,48 -34,13 -67,26 -100,39 -70,26 -133,50 -202,74 -84,31 -123,74 -191,28l-799 -571 -452 -653c-150,-215 -156,-158 -65,-350 49,-104 112,-275 175,-365l89 366zm-4340 356c0,-47 164,-269 221,-271 -1,47 -67,112 -96,147 -64,74 -73,114 -125,124zm159 -108c26,-87 68,-53 124,-109 56,-56 19,-89 108,-133 17,128 -126,262 -232,242zm5461 -72c74,74 113,90 102,138 -39,-12 -100,-87 -133,-120 -34,-34 -105,-85 -112,-138 52,8 109,85 143,120zm-327 -217c105,46 46,64 113,129 56,55 93,26 132,106 -73,30 -137,-36 -169,-68 -45,-45 -87,-80 -76,-167zm-5221 214c-12,-115 27,-124 75,-183 41,-51 66,-83 165,-68 -26,74 -85,58 -132,113 -41,48 -49,105 -108,138zm5437 -188c-48,-45 -83,-40 -143,-103 54,-52 272,81 258,239 -82,-24 -55,-78 -115,-136zm-5259 84c3,-50 19,-52 48,-79 61,-57 147,-168 200,-169 -3,51 -209,240 -248,248zm168 -93c50,-84 75,-43 142,-101 54,-48 36,-72 113,-117 18,100 -36,121 -82,161 -52,44 -71,87 -173,57zm4957 5c-39,-34 -178,-129 -194,-173 29,-35 70,22 153,89 71,57 125,83 122,125 -41,10 -52,-16 -81,-41zm-257 -145c52,41 124,36 138,99 -97,20 -118,-17 -175,-61 -59,-45 -94,-52 -91,-154 96,36 64,67 128,116zm-4775 55c-6,-97 104,-250 263,-224 -37,90 -90,43 -149,106 -40,43 -60,101 -114,118zm4862 -167c-57,-40 -92,-33 -151,-90 76,-44 145,21 188,53 53,40 99,68 90,162 -98,-39 -56,-75 -127,-125zm-4676 81c12,-47 83,-92 126,-124 35,-27 101,-94 141,-95 12,47 -5,41 -48,76 -38,31 -169,156 -219,143zm180 -62c43,-88 86,-43 153,-93 62,-48 27,-57 124,-104 4,88 -40,110 -94,147 -73,51 -77,68 -183,50zm4155 -165c38,-22 96,33 160,76 86,57 136,70 131,119 -38,-2 -276,-150 -291,-195zm-65 37c39,25 57,19 92,33l62 56c-99,17 -107,0 -183,-47 -66,-40 -97,-51 -106,-142 116,22 62,55 135,100zm-177 -125c-46,44 -93,28 -148,-2l12 -47c71,14 81,2 136,49zm-3976 157c-13,-95 43,-117 95,-156 68,-49 87,-76 189,-39 -12,15 -5,14 -32,32 -13,9 -28,15 -46,20 -169,49 -84,79 -206,143zm4141 -184c-67,-25 -61,-39 -67,-48 105,-28 112,-6 189,40 68,41 103,46 108,153 -157,-63 5,-60 -230,-145zm-3766 63c60,-73 90,-24 163,-69 62,-39 42,-57 133,-88 -2,114 -189,214 -296,157zm-175 59c-10,-49 -3,-34 49,-66 66,-40 171,-125 237,-133 -10,62 -21,40 -138,119 -35,22 -107,76 -148,80zm3991 -44c-48,24 -293,-129 -312,-150 35,-41 167,59 250,97 39,18 46,12 62,53zm-158 -142c-23,-7 -41,-12 -58,-22 -40,-23 -13,-9 -28,-25 24,-23 23,-30 65,-34l21 81zm-2624 -251c79,39 111,50 219,29 34,-6 68,-10 97,-28l65 -60c81,76 106,38 222,53 -7,202 65,421 0,608 -70,203 -147,216 -158,496l-589 -106 -197 -544 330 192 -306 -513c130,18 281,-31 317,-127zm-1089 285c10,-113 207,-260 268,-131 -65,18 -97,5 -153,51 -43,36 -53,57 -115,80zm3193 -131c-41,79 -182,-3 -199,-97 56,7 62,7 102,42 55,48 51,16 97,55zm-41 63c-56,137 -187,285 -250,428 96,-39 226,-135 322,-185 -22,68 -220,525 -262,545 -28,13 -627,114 -687,118 -73,-371 43,-465 24,-629 -19,-168 -200,-323 -188,-503 64,-23 75,-30 113,-61 40,67 64,78 169,91 134,18 113,12 212,-35 22,71 73,89 155,108 113,27 117,23 207,-12 49,98 77,94 185,135zm-375 -202c46,13 112,10 175,25 -44,67 -106,46 -188,26 -77,-18 -127,-28 -137,-110 110,16 75,38 150,59zm-2005 82c19,-113 56,-32 149,-65 68,-24 30,-46 146,-58 -28,119 -218,139 -295,123zm2394 -44c-36,18 -318,-52 -334,-100 40,-21 128,19 176,33 30,8 56,16 88,24 49,14 53,5 70,43zm-2376 -44c8,-54 31,-62 88,-56 -13,44 -31,40 -88,56zm2335 -88c47,6 45,21 50,65 -57,-1 -106,4 -148,-37 22,-12 58,-34 98,-28zm-2014 45c67,-45 88,-5 158,-12 68,-7 65,-37 169,-46 -25,83 -58,79 -154,97 -89,17 -124,24 -173,-39zm1465 -13c-36,65 -106,49 -178,40 -94,-11 -127,-19 -153,-95 124,4 82,29 155,42 78,14 98,-25 176,13zm-475 -64l99 4c-18,48 -39,59 -101,64l2 -68zm-401 39c-23,60 -178,62 -216,-27 36,-20 81,-6 111,2 78,20 55,-21 105,25zm751 -50c21,-17 -8,-25 93,-6 28,6 56,10 84,15 35,6 65,11 99,17 6,1 38,6 42,8 38,18 7,-3 23,28 -45,21 -119,-5 -176,-15 -99,-17 -139,-10 -165,-47zm-1534 75c27,-32 301,-107 336,-75 -26,33 -294,91 -298,91 -69,-1 -18,0 -38,-16zm-105 -41c17,-110 143,-105 229,-48 -57,51 -60,4 -229,48zm2170 34c-134,-26 -75,-48 -157,-67 -68,-16 -109,7 -180,-22 62,-64 92,-52 193,-28 94,23 122,26 144,117zm-735 -77c-109,-8 -125,7 -150,-29 23,-22 7,-23 89,-16 30,2 59,4 89,7 129,8 117,-6 135,34 -40,24 -113,7 -163,4zm-952 9c15,-32 -18,-14 36,-28l218 -30c103,-15 75,0 87,7 -23,37 -29,27 -82,34 -80,10 -218,45 -259,17zm963 -76c45,-104 303,-75 342,49 -105,-9 -89,-36 -151,-48 -47,-10 -131,2 -191,-1zm-1172 60c31,-112 280,-162 336,-60 -81,42 -100,-9 -179,10 -64,15 -73,41 -157,50zm1121 -65c-51,-2 -62,3 -104,-18l1 -60c61,-5 85,25 103,78zm-735 4c37,-104 193,-104 289,-82l-28 66c-105,-38 -149,7 -261,16zm2161 -234l-83 366 220 95c-23,36 -109,82 -147,106 -276,171 -121,165 -249,504l-72 -298 -249 155c34,-89 140,-222 191,-314 45,-81 -33,-291 -49,-393l237 90 201 -311zm-3440 450l232 -89 -82 -376c47,68 167,248 195,322l239 -94c-14,115 -97,307 -46,397 54,94 150,217 185,308 -85,-31 -174,-123 -255,-153l-65 295c-35,-79 -76,-362 -107,-409 -21,-31 -241,-152 -296,-201zm1139 1769c171,11 196,-25 263,-126 130,-195 0,-423 43,-684 19,-114 67,-179 99,-279 134,-422 -143,-643 235,-1300 -9,107 -50,180 -79,275 -96,307 10,662 -54,977 -21,98 -62,174 -75,274 -30,215 37,463 -12,669 -11,44 -29,88 -52,123 -74,110 -84,12 -79,198l147 1 -2 384c-144,-45 -219,-104 -411,-73 -381,60 -442,350 -1140,374l381 2312 70 18c9,41 5,46 25,76 254,21 374,-83 536,-181 163,-99 374,-109 542,-9l-3 1027 -823 140 -593 -850 -840 -588c26,-219 178,-908 179,-1022 1,-174 -173,-854 -168,-1031 71,-33 537,-369 642,-441 51,-34 168,-107 204,-148 48,-54 109,-149 152,-212l291 -412c33,-47 123,-164 141,-212 48,2 549,77 579,110 43,65 31,308 2,383 -47,120 -119,155 -200,227zm-3027 2554c-34,69 -58,93 -27,188 18,57 40,128 70,159l-218 -42 114 284c-87,88 -416,247 -473,331l566 -113 119 274c40,-41 81,-113 112,-163 101,90 6,112 197,186 -20,127 -7,128 56,213 51,67 62,103 173,115 -21,154 108,301 260,305 -8,124 38,142 94,196 65,61 70,90 195,82 7,116 33,130 106,182 65,46 97,80 211,65 14,116 45,123 122,167 78,46 100,78 212,44l40 96c-48,34 -138,96 -185,115 41,47 235,112 287,125l-118 581c52,-60 117,-170 165,-245 49,-77 111,-165 157,-244l292 116 -40 -197c60,2 97,-15 138,-28 50,81 65,96 165,120 140,34 119,25 225,-24 34,74 73,92 174,105 121,15 123,5 215,-43 62,65 73,80 188,83 115,3 149,-2 199,-70 68,46 88,77 216,66 154,-13 106,-32 188,-86 82,80 288,59 361,-33 8,-10 6,-8 17,-21l12 -13c96,65 113,42 226,16l-24 137 292 -115 324 482 -119 -576c53,-15 239,-76 282,-121l-87 -62c39,-37 81,-45 121,-77 46,-37 45,-81 79,-121 90,47 150,-11 203,-49 70,-51 99,-52 108,-168 152,22 298,-101 299,-252 129,9 133,-26 192,-88 65,-69 86,-64 79,-195 118,1 132,-37 183,-108 51,-72 69,-86 57,-198 126,-38 105,-20 169,-129 43,-73 60,-117 33,-204l104 -41 77 84c2,-3 8,-13 10,-16l44 -107c17,-42 42,-97 57,-143l576 112c-147,-111 -352,-200 -484,-323l112 -285c-71,12 -153,52 -198,7 23,-59 83,-10 116,-181 30,-150 20,-112 -30,-220 78,-34 91,-71 102,-175 14,-131 -10,-139 -54,-217 73,-41 84,-83 82,-198 -1,-156 -28,-115 -73,-206 108,-63 77,-320 -35,-371 49,-98 70,-80 37,-223 -9,-40 -15,-81 -37,-114 -23,-33 -47,-36 -74,-66 68,-114 20,-246 -46,-341l223 45 -115 -298c30,-10 434,-259 473,-317l-561 117 -111 -263c-2,-1 -5,-3 -6,-8 -1,-4 -4,-5 -10,-10l-108 170c-78,-75 -64,-164 -204,-188 27,-113 1,-139 -50,-212 -50,-71 -69,-108 -175,-117 12,-151 -107,-307 -259,-305 -7,-164 -146,-293 -293,-278 -2,-124 -40,-132 -109,-186 -70,-54 -89,-83 -205,-61 -19,-116 -39,-119 -120,-166 -94,-56 -93,-77 -218,-47l-36 -95c55,-31 145,-77 188,-128l-285 -114 116 -578c-49,56 -119,173 -166,245 -48,76 -106,172 -159,242l-286 -117 39 201c-81,-6 -84,-3 -141,27 -73,-81 -36,-90 -175,-123 -116,-27 -130,-20 -217,26 -78,-130 -274,-149 -386,-62l-125 -88c3,-151 48,-235 9,-399 -25,-109 -72,-238 -134,-308 -22,259 -93,532 -215,721 -130,-20 -239,-14 -327,80 -97,-58 -87,-63 -220,-37 -104,19 -116,33 -169,103 -130,-60 -74,-40 -225,-19l24 -134 -290 117c-49,-79 -111,-167 -164,-248 -47,-72 -106,-175 -163,-236l117 574 -281 112c23,32 14,19 48,43 32,22 22,11 43,36 -131,65 -130,57 -202,189 -142,-26 -304,71 -316,222 -123,-19 -128,1 -199,64 -67,60 -100,56 -101,188 -118,-12 -144,25 -192,84 -51,61 -88,80 -77,199 -152,-2 -266,164 -238,310 -104,8 -122,43 -167,116 -48,79 -68,101 -39,212l-101 36 -65 -93c-15,18 -7,5 -21,33 -41,78 -63,167 -102,246l-569 -113c117,110 390,218 480,328l-113 280c62,-7 143,-42 186,-18 0,58 -26,34 -69,83 -41,48 -92,226 -9,323 -77,69 -88,44 -102,179 -16,148 -6,133 54,220 -126,75 -108,299 -11,390 -54,61 -70,99 -56,220 15,132 37,108 94,184 -70,60 -61,107 -37,210 24,105 30,128 112,167z"/>
   <path class="fil4" d="M13817 18441c-9,139 -463,750 -545,844 -448,514 -940,925 -1604,1172 -1187,443 -2293,280 -3298,-365 -273,-176 -519,-415 -739,-644 -98,-102 -586,-730 -565,-784 -17,-56 -65,-100 -96,-149 -85,-133 -204,-384 -251,-449 -10,303 60,714 138,989 92,327 286,720 310,817 -117,-69 -263,-232 -312,-260 20,150 142,391 209,517 156,295 410,565 655,777 1524,1318 4164,1243 5592,-250 190,-198 527,-690 594,-1021 -51,23 -164,143 -303,212 118,-312 212,-390 320,-830 35,-145 156,-868 133,-986 -38,66 -78,142 -118,210 -29,52 -107,152 -120,200z"/>
   <path class="fil5" d="M3390 11121c40,-35 62,-62 102,-100 39,-37 77,-62 115,-99l658 -585c36,-34 66,-56 108,-92l687 -557c231,-189 698,-536 948,-711 528,-368 929,-640 1492,-996 677,-429 1372,-814 2109,-1207l699 -358c64,-27 86,1 146,30 469,221 921,466 1367,706 1311,706 3268,2036 4426,3037 78,66 149,130 225,189 37,28 84,69 115,99 47,42 72,59 108,93 72,70 151,126 219,196l435 394c80,82 134,130 213,202l628 628c69,75 121,140 201,213l199 216c99,117 79,77 49,322 -198,1622 -550,3219 -1052,4753 -378,1155 -905,2491 -1428,3548 -186,375 -364,746 -560,1111 -92,171 -79,210 -184,231 -2430,467 -4817,601 -7297,384 -780,-68 -1448,-153 -2211,-276 -235,-39 -476,-91 -705,-124 -18,-60 -104,-204 -142,-272l-415 -804c-544,-1091 -1040,-2291 -1423,-3465 -271,-833 -504,-1676 -704,-2562 -101,-446 -194,-903 -272,-1364 -43,-255 -209,-1221 -205,-1417l1349 -1363zm6932 -4832c-669,299 -2136,1129 -2711,1490 -436,274 -862,539 -1270,827 -619,437 -1215,865 -1792,1349l-846 725c-186,147 -1156,1094 -1335,1290 -45,49 -81,91 -125,140l-255 272c-59,70 -74,56 -57,179 86,612 171,1211 286,1810 445,2309 1128,4423 2034,6361 226,484 454,944 699,1399 24,43 172,318 185,329 50,40 1241,220 1350,235 3010,415 5950,394 8931,-197 107,-21 129,-3 175,-89 856,-1614 1455,-2950 2063,-4760 494,-1469 869,-3116 1072,-4696 68,-534 141,-413 -179,-742 -46,-48 -77,-94 -124,-140 -272,-268 -486,-515 -784,-787l-686 -633c-98,-82 -179,-168 -279,-248 -95,-76 -186,-157 -279,-236 -98,-83 -187,-163 -288,-241l-588 -467c-618,-492 -1760,-1289 -2476,-1719 -468,-281 -838,-506 -1326,-772l-1035 -536c-60,-29 -117,-58 -178,-86 -52,-25 -126,-82 -182,-57z"/>
   <path class="fil2" d="M9742 13666c81,-72 153,-107 200,-227 29,-75 41,-318 -2,-383 -30,-33 -531,-108 -579,-110 -18,48 -108,165 -141,212l-291 412c-43,63 -104,158 -152,212 -36,41 -153,114 -204,148 -105,72 -571,408 -642,441 -5,177 169,857 168,1031 -1,114 -153,803 -179,1022l840 588 593 850 823 -140 3 -1027c-168,-100 -379,-90 -542,9 -162,98 -282,202 -536,181 -20,-30 -16,-35 -25,-76l-70 -18 -381 -2312c698,-24 759,-314 1140,-374 192,-31 267,28 411,73l2 -384 -147 -1c-5,-186 5,-88 79,-198 23,-35 41,-79 52,-123 49,-206 -18,-454 12,-669 13,-100 54,-176 75,-274 64,-315 -42,-670 54,-977 29,-95 70,-168 79,-275 -378,657 -101,878 -235,1300 -32,100 -80,165 -99,279 -43,261 87,489 -43,684 -67,101 -92,137 -263,126z"/>
   <path class="fil2" d="M10714 13077c64,203 344,503 396,589l-354 3 -3 119 -169 6 -3 389c145,-50 221,-106 410,-80 129,18 264,88 359,142 264,152 418,224 787,233l-373 2306c-47,26 -32,-4 -54,33 -10,16 -8,39 -21,65 -242,40 -387,-87 -537,-177 -233,-138 -337,-94 -571,-15l0 1035 823 147 590 -846 843 -594c-13,-237 -174,-871 -169,-1030 5,-182 183,-877 173,-1014l-839 -594 -585 -843c-85,8 -668,104 -703,126z"/>
   <path class="fil2" d="M10581 14283l0 2213c241,-84 363,-119 589,16 159,95 270,230 528,217l361 -2181c-537,-9 -771,-346 -1102,-375 -106,-9 -327,35 -376,110z"/>
   <path class="fil2" d="M8709 14547l356 2182c369,23 487,-304 815,-307 132,-1 194,42 297,68l2 -2219c-74,-65 -255,-108 -371,-98 -136,12 -250,78 -357,133 -238,122 -410,237 -742,241z"/>
   <path class="fil6" d="M8473 12296l-20 44c-37,85 -170,188 -294,165 -50,93 13,77 -96,161 -67,52 -74,87 -196,78 1,114 -28,121 -84,182 -57,62 -56,81 -173,89 12,124 -89,282 -225,293 10,119 12,103 -43,195 -45,76 -51,108 -153,123 34,133 3,124 -31,230 84,56 448,91 550,148l-366 91c44,40 293,141 366,175 67,30 133,84 195,47l808 -563c38,-28 187,-255 227,-313l339 -478c51,-73 10,-116 -23,-202 -50,-134 -100,-276 -150,-401 -61,84 -49,254 -103,342 -29,-53 -97,-364 -119,-461 -22,-94 -2,-88 -82,-119 -61,83 -15,75 -128,136 -65,36 -108,67 -199,38z"/>
   <path class="fil6" d="M13430 16715c-118,-63 -246,-113 -370,-172 -185,-88 -134,-92 -346,60 -182,131 -502,336 -653,453 -49,38 -395,548 -463,642 -161,225 -155,168 -81,364 51,137 99,264 147,394 26,-40 55,-189 71,-256l29 -80c2,3 5,7 6,10 30,61 99,376 118,453 18,77 8,90 77,107 46,-88 38,-85 125,-136 64,-37 113,-63 202,-37 56,-96 8,-75 114,-149 69,-49 90,-76 205,-58 4,-106 123,-253 283,-240 -2,-121 104,-268 255,-269 -5,-125 80,-285 229,-295 -18,-110 8,-139 51,-213 35,-61 62,-95 145,-106 -43,-146 8,-125 30,-239l-544 -139 370 -94z"/>
   <path class="fil6" d="M7507 14479l-478 -282c-57,60 -17,72 -122,124 40,103 44,80 17,209 -25,117 -26,105 -104,159 49,56 53,94 43,194 -13,130 -16,105 -84,179 78,124 87,258 -7,377l31 38c39,48 37,67 46,140 13,117 10,128 -44,199 66,77 64,38 94,168 28,123 23,117 -25,214 71,22 88,72 114,149 46,138 23,93 3,211 70,36 122,-23 250,-102 58,-36 196,-128 254,-149l-191 324 543 -196 182 -1000c9,-81 -159,-1001 -167,-1018 -18,-38 -479,-239 -544,-259l189 321z"/>
   <path class="fil6" d="M13449 16656l-188 -322 474 280c49,-67 34,-89 119,-116 -40,-109 -44,-88 -17,-217 17,-83 36,-125 103,-149 -51,-97 -54,-82 -39,-215 11,-106 21,-120 84,-163 -47,-64 -59,-76 -60,-189 -2,-150 18,-115 67,-204 -60,-30 -68,-72 -79,-160 -14,-117 -14,-132 47,-202 -62,-69 -68,-38 -96,-164 -27,-119 -18,-127 22,-215 -67,-33 -85,-66 -111,-148 -36,-112 -28,-114 -2,-214 -68,-40 -122,22 -250,100 -71,44 -180,117 -252,148l190 -323c-110,21 -256,90 -362,128 -220,79 -174,30 -217,272l-147 830 143 836c38,214 1,145 232,257 91,43 251,124 339,150z"/>
   <path class="fil6" d="M8725 17072c-30,-33 -120,-86 -160,-116 -57,-40 -104,-73 -161,-115 -107,-78 -218,-153 -325,-229 -225,-161 -152,-146 -362,-69 -83,30 -328,112 -386,151l362 93c-136,69 -378,63 -505,135 3,2 6,5 8,7 52,49 58,66 95,133 35,61 45,96 27,174 114,72 62,-1 154,122 56,76 74,78 62,202 119,10 251,139 248,292 132,-3 268,120 277,263 118,-10 128,23 201,76 69,49 81,57 102,159 88,-17 139,13 203,52 95,57 74,46 122,148 89,-20 81,-13 163,9 59,-99 77,-358 131,-478l95 362c46,-61 138,-288 178,-376 14,-31 30,-65 44,-95 20,-45 12,-58 -11,-92l-562 -808z"/>
   <path class="fil6" d="M11784 12732l-89 -366c-63,90 -126,261 -175,365 -91,192 -85,135 65,350l452 653 799 571c68,46 107,3 191,-28 69,-24 132,-48 202,-74 33,-13 66,-26 100,-39 39,-14 69,-18 99,-48l-356 -89 505 -129 -58 -63c-63,-91 -105,-162 -76,-255 -4,-4 -235,-90 -217,-327 -110,-9 -117,-44 -167,-101 -55,-62 -87,-71 -78,-188 -101,-3 -132,-32 -180,-82 -53,-56 -94,-73 -96,-182 -104,4 -131,-23 -194,-69 -62,-45 -97,-66 -109,-168 -118,21 -265,-61 -310,-153l-31 -49c-53,30 -93,11 -146,-4 -58,105 -72,373 -131,475z"/>
   <path class="fil6" d="M10328 18603l-20 -3c-160,-24 -129,-179 -129,-346 0,-150 5,-311 -2,-460 -105,5 -260,41 -369,60 -121,21 -243,42 -365,62 -86,15 -75,29 -108,107 -49,115 -175,360 -197,450l320 -182 -254 427c37,12 85,25 115,47l71 85c118,-59 278,-22 365,94 146,-63 259,-54 376,55 91,-51 60,-56 202,-52 123,3 100,16 175,69 80,-54 46,-62 176,-72 115,-10 135,6 201,49 68,-71 50,-68 169,-91 132,-26 117,-10 209,32 39,-114 214,-145 329,-126l-305 -516 324 191c-22,-93 -78,-218 -114,-313 -94,-253 -56,-225 -181,-246 -242,-40 -490,-97 -735,-131 0,179 0,358 0,537 1,212 -20,295 -253,273z"/>
   <path class="fil2" d="M7066 18664c-21,54 467,682 565,784 220,229 466,468 739,644 1005,645 2111,808 3298,365 664,-247 1156,-658 1604,-1172 82,-94 536,-705 545,-844 -130,238 -377,528 -571,729 -694,720 -1584,1177 -2700,1222 -1087,44 -1930,-294 -2702,-892 -116,-90 -403,-359 -500,-481l-278 -355z"/>
   <path class="fil3" d="M7066 18664l278 355c97,122 384,391 500,481 772,598 1615,936 2702,892 1116,-45 2006,-502 2700,-1222 194,-201 441,-491 571,-729 13,-48 91,-148 120,-200 40,-68 80,-144 118,-210 23,118 -98,841 -133,986 -108,440 -202,518 -320,830 139,-69 252,-189 303,-212 -67,331 -404,823 -594,1021 -1428,1493 -4068,1568 -5592,250 -245,-212 -499,-482 -655,-777 -67,-126 -189,-367 -209,-517 49,28 195,191 312,260 -24,-97 -218,-490 -310,-817 -78,-275 -148,-686 -138,-989 47,65 166,316 251,449 31,49 79,93 96,149zm6853 879l-183 157c17,-63 55,-133 81,-197 75,-190 143,-418 185,-619 62,-301 111,-676 84,-997l-283 496c-100,161 -209,314 -318,449 -240,296 -475,530 -785,760 -1380,1022 -3257,1001 -4659,0 -201,-144 -253,-202 -423,-356 -125,-113 -253,-254 -369,-398 -162,-201 -332,-459 -446,-710 -37,-80 -66,-184 -112,-262 -81,372 65,1077 193,1451l155 391c-99,-55 -191,-205 -265,-242 55,410 295,786 484,1035 650,859 1942,1385 3125,1390 863,4 1761,-291 2330,-678 339,-230 557,-428 792,-715 173,-213 442,-655 487,-1018 -35,16 -14,1 -44,29 -16,14 -13,15 -29,34z"/>
   <path class="fil6" d="M10521 11871c-12,180 169,335 188,503 19,164 -97,258 -24,629 60,-4 659,-105 687,-118 42,-20 240,-477 262,-545 -96,50 -226,146 -322,185 63,-143 194,-291 250,-428 -108,-41 -136,-37 -185,-135 -90,35 -94,39 -207,12 -82,-19 -133,-37 -155,-108 -99,47 -78,53 -212,35 -105,-13 -129,-24 -169,-91 -38,31 -49,38 -113,61z"/>
   <path class="fil6" d="M9499 11880c-36,96 -187,145 -317,127l306 513 -330 -192 197 544 589 106c11,-280 88,-293 158,-496 65,-187 -7,-406 0,-608 -116,-15 -141,23 -222,-53l-65 60c-29,18 -63,22 -97,28 -108,21 -140,10 -219,-29z"/>
   <path class="fil2" d="M10308 18600l20 3c-81,-212 25,-4655 -33,-4808l-38 0c-28,53 -11,3622 -11,4271 0,167 -31,477 62,534z"/>
   <path class="fil2" d="M6793 13832l-359 -82c6,21 55,48 75,61 31,18 49,29 78,47 41,25 124,72 148,99l-92 227c201,-23 312,-102 410,-38 82,55 215,145 301,184l-158 -256 297 -68c-90,-41 -331,-66 -398,-102 -32,-18 -175,-253 -201,-299 -11,11 -7,5 -18,22l-38 88c-17,43 -34,77 -45,117z"/>
   <path class="fil2" d="M11842 11758l-237 -90c16,102 94,312 49,393 -51,92 -157,225 -191,314l249 -155 72 298c128,-339 -27,-333 249,-504 38,-24 124,-70 147,-106l-220 -95 83 -366 -201 311z"/>
   <path class="fil2" d="M9162 19144c-11,-72 -28,-145 -43,-215 -54,-246 16,-144 189,-498l-261 159 -66 -295c-20,67 -83,371 -102,403 -18,32 -110,79 -148,103 -29,18 -45,30 -76,49l-72 58 227 87 -82 373c33,-39 178,-271 194,-319l240 95z"/>
   <path class="fil2" d="M13284 14028c75,18 241,46 296,71 -37,70 -127,176 -152,247 80,-25 221,-133 304,-181 91,-52 287,31 399,46l-90 -229 303 -203 -358 80c-21,-67 -56,-182 -99,-226 -55,63 -157,269 -205,295 -73,39 -313,58 -398,100z"/>
   <path class="fil2" d="M13570 16743l-279 60c15,28 113,41 191,59 47,11 166,32 197,54 21,14 178,260 196,293 28,-32 86,-178 98,-227l365 82 -307 -202 92 -232c-126,15 -310,102 -408,38 -88,-57 -214,-144 -303,-184 46,82 121,178 158,259z"/>
   <path class="fil2" d="M6637 16602l90 231 -314 198 369 -77c13,51 68,199 96,227 54,-61 160,-269 204,-294 65,-38 314,-60 398,-101l-291 -67 158 -256c-80,28 -223,130 -307,182 -99,61 -282,-25 -403,-43z"/>
   <path class="fil2" d="M8835 11808l-232 89c55,49 275,170 296,201 31,47 72,330 107,409l65 -295c81,30 170,122 255,153 -35,-91 -131,-214 -185,-308 -51,-90 32,-282 46,-397l-239 94c-28,-74 -148,-254 -195,-322l82 376z"/>
   <path class="fil2" d="M11438 18444c59,107 122,206 183,305 47,76 21,101 2,192 -15,71 -33,137 -43,209 79,-19 167,-75 237,-83l200 312 -81 -369 227 -99c-39,-25 -279,-177 -294,-197 -52,-70 -59,-301 -105,-389 -40,69 -25,208 -75,276l-251 -157z"/>
   <path class="fil3" d="M4604 17585c44,58 133,100 194,155l-70 231c84,-37 125,-99 203,-135 76,38 129,102 205,138l-70 -235c55,-54 145,-99 191,-154l-247 -2 -83 -233 -78 234 -245 1z"/>
   <path class="fil3" d="M15416 17667c30,21 61,41 93,73l-74 236c61,-35 154,-121 211,-138 69,38 128,100 202,138l-72 -237c48,-49 97,-74 147,-112l42 -43 -241 0c-35,-76 -46,-181 -90,-237 -12,59 -54,190 -78,238l-240 0 100 82z"/>
   <path class="fil7" d="M9104 16809c5,77 44,63 124,55 276,-27 392,-254 653,-265 139,-6 193,45 297,60l0 -85c-197,-105 -384,-106 -561,9 -494,321 -328,154 -513,226z"/>
   <path class="fil7" d="M10581 16595l4 71c537,-230 590,163 978,199 136,12 119,-17 119,-62 -302,-16 -339,-105 -533,-220 -237,-141 -514,-78 -568,12z"/>
   <path class="fil2" d="M12712 18411c107,30 125,-16 180,-59 54,-44 88,-59 81,-164 -91,38 -59,83 -126,132 -48,35 -118,32 -135,91z"/>
   <path class="fil2" d="M12164 12147c6,9 0,23 67,48 235,85 73,82 230,145 -5,-107 -40,-112 -108,-153 -77,-46 -84,-68 -189,-40z"/>
   <path class="fil2" d="M9617 19059c-201,-3 -90,-42 -247,-71 16,89 63,98 149,118 94,22 121,30 186,-20 -7,-6 5,-25 -88,-27z"/>
   <path class="fil2" d="M13548 13480c52,-72 1,-130 -34,-180 -42,-59 -63,-110 -163,-106 47,109 103,51 147,208 6,20 10,30 20,45 2,3 9,11 11,14 14,17 11,11 19,19z"/>
   <path class="fil2" d="M10926 19125c36,78 106,65 187,50 91,-18 128,-21 152,-104 -29,4 -55,8 -84,20 -185,77 -95,6 -255,34z"/>
   <path class="fil2" d="M8090 12379c122,-64 37,-94 206,-143 18,-5 33,-11 46,-20 27,-18 20,-17 32,-32 -102,-37 -121,-10 -189,39 -52,39 -108,61 -95,156z"/>
   <path class="fil2" d="M14013 14569c73,-44 45,-122 20,-193 -29,-87 -34,-113 -118,-138 7,73 47,94 67,152 28,78 -13,96 31,179z"/>
   <path class="fil2" d="M7516 12905c59,-33 67,-90 108,-138 47,-55 106,-39 132,-113 -99,-15 -124,17 -165,68 -48,59 -87,68 -75,183z"/>
   <path class="fil2" d="M6737 16193c-34,-158 -68,-68 -52,-254 2,-31 -2,-58 -20,-82 -65,47 -55,99 -36,183 19,89 26,138 108,153z"/>
   <path class="fil2" d="M13322 13153c43,-83 -19,-132 -53,-174 -43,-53 -67,-100 -174,-91 68,125 87,11 169,198l58 67z"/>
   <path class="fil2" d="M6665 15806c-16,-145 -61,-95 -29,-245 9,-40 4,-56 2,-97 -69,26 -77,79 -67,169 11,99 12,151 94,173z"/>
   <path class="fil2" d="M13269 17877c106,7 115,-29 163,-91 52,-66 68,-79 55,-180 -68,39 -59,94 -97,150 -48,69 -69,7 -121,121z"/>
   <path class="fil2" d="M8060 18145c6,10 -1,12 22,36 18,19 13,14 36,25 208,97 66,104 211,155 -5,-100 -32,-111 -95,-157 -50,-37 -86,-71 -174,-59z"/>
   <path class="fil2" d="M6847 16574c-21,-87 -55,-96 -73,-163 -17,-59 8,-83 -9,-129 -18,-50 -10,-24 -29,-40 -48,76 -42,94 -10,191 29,85 33,122 121,141z"/>
   <path class="fil2" d="M6645 15019c3,-65 -13,-133 -5,-182 8,-46 19,-37 32,-69 11,-26 12,-56 15,-83 -86,12 -92,68 -101,162 -7,77 -10,162 59,172z"/>
   <path class="fil2" d="M13236 13225c-19,-67 -73,-77 -115,-123 -59,-62 -25,-113 -110,-140 -12,98 14,122 66,171 55,53 47,88 159,92z"/>
   <path class="fil2" d="M11055 11737c71,29 112,6 180,22 82,19 23,41 157,67 -22,-91 -50,-94 -144,-117 -101,-24 -131,-36 -193,28z"/>
   <path class="fil2" d="M7079 13534l24 -31c23,-39 28,-92 49,-128 37,-63 70,-28 106,-128 -112,1 -110,35 -154,106 -35,57 -75,113 -25,181z"/>
   <path class="fil2" d="M7411 17618c-39,-66 -72,-75 -112,-124 -52,-65 -16,-90 -89,-164 -41,96 -4,128 41,187 42,57 63,112 160,101z"/>
   <path class="fil2" d="M13991 16511c86,-17 95,-51 113,-138 18,-88 36,-150 -39,-194 -7,56 -2,138 -13,180 -21,84 -38,5 -61,152z"/>
   <path class="fil2" d="M12700 12667c-14,-63 -86,-58 -138,-99 -64,-49 -32,-80 -128,-116 -3,102 32,109 91,154 57,44 78,81 175,61z"/>
   <path class="fil2" d="M7951 18206c-47,-78 -86,-57 -143,-115 -60,-61 -33,-86 -110,-135 -21,97 30,129 71,173 47,49 80,85 182,77z"/>
   <path class="fil2" d="M12498 12366c59,57 94,50 151,90 71,50 29,86 127,125 9,-94 -37,-122 -90,-162 -43,-32 -112,-97 -188,-53z"/>
   <path class="fil2" d="M7494 17554c7,-12 12,-3 17,-42 7,-59 -28,-95 -58,-135 -49,-64 -50,-95 -152,-103 55,130 97,61 138,203 15,52 25,57 55,77z"/>
   <path class="fil2" d="M10295 19170c-75,-9 -5,-27 -150,-33 20,83 87,86 162,88 101,2 139,8 179,-71 -68,0 -139,23 -191,16z"/>
   <path class="fil2" d="M8110 18354c-54,-43 -35,-79 -124,-125 -17,150 172,244 274,224 -28,-57 -106,-63 -150,-99z"/>
   <path class="fil2" d="M7748 17854c17,-88 -16,-127 -59,-172 -46,-48 -76,-98 -167,-90 26,58 72,75 116,115 70,65 9,99 110,147z"/>
   <path class="fil2" d="M13645 13876c-16,-94 -57,-76 -91,-138 -38,-68 -6,-132 -81,-160 -28,104 -6,111 39,188 38,64 42,99 133,110z"/>
   <path class="fil2" d="M7862 12708c102,30 121,-13 173,-57 46,-40 100,-61 82,-161 -77,45 -59,69 -113,117 -67,58 -92,17 -142,101z"/>
   <path class="fil2" d="M9772 18989c35,4 57,10 95,7 197,-17 68,36 239,39 -25,-72 -57,-82 -149,-95 -85,-11 -143,-27 -185,49z"/>
   <path class="fil2" d="M12388 18633c103,26 118,5 189,-44 61,-41 93,-54 99,-152 -107,50 -66,73 -136,115 -54,33 -82,13 -126,50 -31,25 -10,3 -26,31z"/>
   <path class="fil2" d="M9752 19082c33,88 62,92 165,104 87,10 150,18 177,-53 -64,-5 -150,9 -198,-4 -59,-16 -49,-36 -144,-47z"/>
   <path class="fil2" d="M7779 17890c45,85 77,50 136,106 65,62 -6,68 113,127 0,-112 -34,-127 -91,-174 -41,-35 -84,-93 -158,-59z"/>
   <path class="fil2" d="M8425 18578c-54,-37 -30,-64 -123,-107 -9,103 48,121 110,158 52,32 122,83 183,27 -63,-45 -118,-42 -170,-78z"/>
   <path class="fil2" d="M9496 11742c84,-9 93,-35 157,-50 79,-19 98,32 179,-10 -56,-102 -305,-52 -336,60z"/>
   <path class="fil2" d="M13889 16478c61,-94 -24,-107 59,-236 21,-32 18,-43 23,-86 -71,5 -90,57 -106,129 -19,91 -35,135 24,193z"/>
   <path class="fil2" d="M12982 12926c-39,-80 -76,-51 -132,-106 -67,-65 -8,-83 -113,-129 -11,87 31,122 76,167 32,32 96,98 169,68z"/>
   <path class="fil2" d="M7787 12623c54,-17 74,-75 114,-118 59,-63 112,-16 149,-106 -159,-26 -269,127 -263,224z"/>
   <path class="fil2" d="M13980 16109c9,-79 -6,-106 -1,-163 4,-58 16,-47 28,-73 17,-36 13,-51 13,-97 -75,26 -82,53 -91,143 -4,36 -10,75 -6,111 10,75 49,75 57,79z"/>
   <path class="fil2" d="M14126 15350c76,-34 73,-85 63,-175 -11,-99 -12,-140 -92,-169 9,82 31,103 38,161 10,71 -21,85 -9,183z"/>
   <path class="fil2" d="M14120 15742c75,-25 84,-72 84,-164 -1,-94 -2,-152 -77,-179 3,73 21,113 23,166 2,67 -29,78 -30,177z"/>
   <path class="fil2" d="M6840 16172c0,0 40,-2 46,-79 4,-53 -16,-213 -111,-249 5,155 63,66 43,240 -3,21 -8,26 7,62 12,31 9,17 15,26z"/>
   <path class="fil2" d="M7369 13277c92,4 112,-32 151,-86 49,-66 75,-74 60,-179 -75,33 -52,79 -98,141 -51,69 -71,19 -113,124z"/>
   <path class="fil2" d="M13913 14596c-16,-106 -45,-87 -66,-160 -23,-78 27,-88 -35,-164 -62,66 -39,101 -12,186 24,78 36,118 113,138z"/>
   <path class="fil2" d="M14089 14958c68,-34 64,-93 44,-180 -20,-93 -22,-131 -108,-160 15,87 43,101 57,164 14,67 -19,81 7,176z"/>
   <path class="fil2" d="M6632 15413c-51,-359 3,-109 10,-341 -79,23 -84,67 -84,166 1,99 0,147 74,175z"/>
   <path class="fil2" d="M13503 17568c153,-7 222,-193 184,-294 -53,44 -41,94 -73,154 -39,73 -70,27 -111,140z"/>
   <path class="fil2" d="M12330 18533c101,-37 80,-72 133,-108 68,-46 100,1 147,-85 -101,-19 -118,2 -185,48 -61,42 -89,50 -95,145z"/>
   <path class="fil2" d="M9728 18974c-22,-83 -53,-86 -145,-107 -81,-19 -117,-37 -180,15 8,8 0,7 20,18 20,9 -22,-5 19,7 48,13 80,-4 137,12 76,22 40,52 149,55z"/>
   <path class="fil2" d="M13008 18154c98,46 254,-107 237,-242 -77,43 -57,83 -104,136 -47,55 -99,22 -133,106z"/>
   <path class="fil2" d="M10151 19039c95,11 92,-11 169,-11 94,0 7,32 166,28 -21,-78 -84,-79 -166,-81 -89,-2 -136,-7 -169,64z"/>
   <path class="fil2" d="M12810 12614c60,63 95,58 143,103 60,58 33,112 115,136 14,-158 -204,-291 -258,-239z"/>
   <path class="fil2" d="M8153 12475c106,18 110,1 183,-50 54,-37 98,-59 94,-147 -97,47 -62,56 -124,104 -67,50 -110,5 -153,93z"/>
   <path class="fil2" d="M10986 11833c-78,-38 -98,1 -176,-13 -73,-13 -31,-38 -155,-42 26,76 59,84 153,95 72,9 142,25 178,-40z"/>
   <path class="fil2" d="M9521 11846c49,63 84,56 173,39 96,-18 129,-14 154,-97 -104,9 -101,39 -169,46 -70,7 -91,-33 -158,12z"/>
   <path class="fil2" d="M13408 17503c69,-41 46,-90 81,-150 46,-78 67,-20 100,-136 -91,5 -107,41 -143,105 -45,80 -60,82 -38,181z"/>
   <path class="fil2" d="M7537 17809c-40,-43 -22,-78 -66,-123 -28,-30 -1,-11 -39,-26 -18,138 119,281 234,264 -44,-73 -78,-60 -129,-115z"/>
   <path class="fil2" d="M6767 15799c60,-35 65,-73 55,-163 -10,-90 -8,-143 -86,-172 0,103 26,92 32,164 8,88 -38,66 -1,171z"/>
   <path class="fil2" d="M7170 13594c97,6 111,-43 146,-104 25,-41 56,-81 47,-133l-20 -43c-67,68 -31,88 -74,154 -45,70 -59,10 -99,126z"/>
   <path class="fil2" d="M6790 14663c83,-19 90,-59 108,-145 19,-87 29,-141 -32,-184 -21,78 -5,124 -21,178 -24,83 -39,7 -55,151z"/>
   <path class="fil2" d="M14025 15352c0,-104 -31,-106 -33,-177 -2,-52 9,-47 15,-79 3,-16 4,-23 0,-40 -11,-52 -12,-31 -22,-43 -61,69 -57,78 -44,184 10,84 19,127 84,155z"/>
   <path class="fil2" d="M14075 16131c76,-20 91,-67 99,-151 10,-92 17,-155 -57,-189 -3,63 12,139 4,185 -10,63 -37,54 -46,155z"/>
   <path class="fil2" d="M10534 19052c96,1 110,-28 175,-29 81,0 49,37 160,8 -35,-63 -78,-68 -173,-60 -96,8 -135,8 -162,81z"/>
   <path class="fil2" d="M6696 14630c8,-60 2,-131 13,-177 18,-71 44,-41 61,-151 -82,19 -97,65 -115,150 -14,68 -31,162 41,178z"/>
   <path class="fil2" d="M13987 14971c-2,-106 -33,-91 -47,-163 -17,-89 28,-68 -14,-171 -67,51 -58,90 -36,185 18,82 28,123 97,149z"/>
   <path class="fil2" d="M12397 12436l-62 -56c-35,-14 -53,-8 -92,-33 -73,-45 -19,-78 -135,-100 9,91 40,102 106,142 76,47 84,64 183,47z"/>
   <path class="fil2" d="M6954 16544c70,-107 1,-297 -106,-325 20,106 45,90 67,164 20,66 -22,106 39,161z"/>
   <path class="fil2" d="M6741 15038c70,-19 84,-69 92,-147 9,-90 18,-141 -43,-182 -38,68 2,103 -10,177 -13,76 -36,28 -39,152z"/>
   <path class="fil2" d="M7284 13210c55,-52 46,-94 84,-146 46,-63 90,-43 125,-126 -139,-16 -254,175 -209,272z"/>
   <path class="fil2" d="M13184 17803c68,-39 49,-86 96,-144 48,-60 80,-33 113,-119 -126,-23 -233,157 -209,263z"/>
   <path class="fil2" d="M13460 13539c-36,-91 -59,-70 -107,-129 -50,-62 -11,-108 -90,-155 -36,114 73,277 197,284z"/>
   <path class="fil2" d="M10537 19151c28,101 275,105 343,-14 -91,-7 -104,28 -172,31 -87,5 -16,-23 -171,-17z"/>
   <path class="fil2" d="M10912 19025c112,-4 90,-33 162,-44 72,-12 71,14 168,-5 -42,-80 -102,-61 -184,-46 -85,16 -122,22 -146,95z"/>
   <path class="fil2" d="M7603 12980c106,20 249,-114 232,-242 -89,44 -52,77 -108,133 -56,56 -98,22 -124,109z"/>
   <path class="fil2" d="M12926 18073c61,-23 67,-83 111,-130 45,-48 107,-33 120,-112 -135,-10 -246,141 -231,242z"/>
   <path class="fil2" d="M8653 18570c-8,-125 -179,-222 -291,-188 47,66 85,41 153,82 47,28 32,37 60,66 16,17 50,29 78,40z"/>
   <path class="fil2" d="M8465 12258c107,57 294,-43 296,-157 -91,31 -71,49 -133,88 -73,45 -103,-4 -163,69z"/>
   <path class="fil2" d="M7280 17236c52,-88 -41,-282 -165,-299 35,145 82,40 116,222l28 60c13,14 10,9 21,17z"/>
   <path class="fil2" d="M10668 11682c60,3 144,-9 191,1 62,12 46,39 151,48 -39,-124 -297,-153 -342,-49z"/>
   <path class="fil2" d="M13954 15527c0,99 -13,169 69,205 4,-90 -17,-104 -17,-167 0,-73 29,-63 24,-170 -59,23 -76,53 -76,132z"/>
   <path class="fil2" d="M11362 11920c-63,-15 -129,-12 -175,-25 -75,-21 -40,-43 -150,-59 10,82 60,92 137,110 82,20 144,41 188,-26z"/>
   <path class="fil2" d="M11998 18712c112,-32 66,-54 144,-92 66,-32 96,1 149,-64 -75,-58 -272,24 -293,156z"/>
   <path class="fil2" d="M12640 18320c110,-56 54,-71 123,-122 66,-49 84,-12 136,-97 -90,-13 -124,15 -173,59 -48,43 -87,71 -86,160z"/>
   <path class="fil2" d="M6731 15414c105,-23 113,-282 7,-331 -3,87 18,108 17,168 -1,92 -31,14 -24,163z"/>
   <path class="fil2" d="M11285 18960c104,-17 80,-37 147,-59 96,-31 120,38 151,-44 -49,-57 -124,-19 -183,-1 -68,21 -99,35 -115,104z"/>
   <path class="fil2" d="M9182 11977c77,16 267,-4 295,-123 -116,12 -78,34 -146,58 -93,33 -130,-48 -149,65z"/>
   <path class="fil2" d="M8410 12165c62,-23 72,-44 115,-80 56,-46 88,-33 153,-51 -61,-129 -258,18 -268,131z"/>
   <path class="fil2" d="M9882 11681c112,-9 156,-54 261,-16l28 -66c-96,-22 -252,-22 -289,82z"/>
   <path class="fil2" d="M12154 18833c40,-12 93,-43 127,-63 51,-29 61,-39 69,-117 -102,37 -66,48 -125,87 -63,43 -81,12 -143,48l72 45z"/>
   <path class="fil2" d="M13708 13783c78,-59 51,-90 -12,-188 -30,-48 -57,-68 -119,-74 14,68 58,92 79,114 44,48 33,91 52,148z"/>
   <path class="fil2" d="M7005 17098c18,89 82,182 180,193 -30,-78 -42,-70 -83,-116 -50,-58 -29,-79 -48,-140 -33,25 -29,25 -49,63z"/>
   <path class="fil2" d="M12822 18263c49,-5 241,-188 247,-246 -49,0 -46,12 -78,44 -45,46 -173,140 -169,202z"/>
   <path class="fil2" d="M7973 12537c50,13 181,-112 219,-143 43,-35 60,-29 48,-76 -40,1 -106,68 -141,95 -43,32 -114,77 -126,124z"/>
   <path class="fil2" d="M7042 13729c45,-8 49,-48 96,-141l61 -117c20,-69 1,-33 -7,-47 -49,26 -69,100 -94,149 -22,43 -72,113 -56,156z"/>
   <path class="fil2" d="M14000 16323c40,-42 69,-305 54,-343 -40,18 -30,6 -38,66 -5,34 -9,64 -14,98 -17,110 -40,148 -2,179z"/>
   <path class="fil2" d="M8319 18396c-44,-29 -107,-83 -158,-89 2,55 45,63 136,123 87,58 119,99 158,73 -20,-46 -91,-77 -136,-107z"/>
   <path class="fil2" d="M13099 17999c53,-5 59,-46 122,-122 37,-44 96,-96 99,-148 -57,5 -147,140 -183,189 -30,39 -43,30 -38,81z"/>
   <path class="fil2" d="M6702 15601c21,-42 5,-310 -25,-344 -32,20 -23,12 -20,69l12 199c5,106 11,69 33,76z"/>
   <path class="fil2" d="M9274 18886c-115,-36 -74,-12 -90,-4 20,18 -35,13 76,43 79,20 212,74 257,58 -11,-44 20,-14 -27,-37l-128 -34c-31,-9 -60,-17 -88,-26z"/>
   <path class="fil2" d="M14076 15168c8,-15 22,21 4,-83l-31 -186c-9,-62 3,-58 -36,-73 -25,42 3,123 12,175l20 129c18,59 -7,17 31,38z"/>
   <path class="fil2" d="M12625 12540c16,44 155,139 194,173 29,25 40,51 81,41 3,-42 -51,-68 -122,-125 -83,-67 -124,-124 -153,-89z"/>
   <path class="fil2" d="M6843 16368c13,-46 -17,-115 -32,-170l-38 -139c-23,-49 3,-16 -33,-27 -21,45 16,118 30,170 8,28 16,57 24,88 14,54 6,63 49,78z"/>
   <path class="fil2" d="M10715 19109c38,24 318,-18 343,-51 -37,-32 -202,5 -282,17 -63,9 -48,-3 -61,34z"/>
   <path class="fil2" d="M12308 12310c15,45 253,193 291,195 5,-49 -45,-62 -131,-119 -64,-43 -122,-98 -160,-76z"/>
   <path class="fil2" d="M8290 12317c41,-4 113,-58 148,-80 117,-79 128,-57 138,-119 -66,8 -171,93 -237,133 -52,32 -59,17 -49,66z"/>
   <path class="fil2" d="M7227 13396c46,4 38,-28 107,-127 29,-42 87,-112 81,-162 -47,7 -62,60 -111,131l-75 116c-1,3 -6,13 -6,16 -3,18 3,21 4,26z"/>
   <path class="fil2" d="M7574 17729c3,-38 -109,-156 -150,-209 -27,-35 -35,-56 -80,-58 7,48 190,265 206,270 49,17 4,4 24,-3z"/>
   <path class="fil2" d="M8480 18537c18,53 33,39 141,97 49,27 117,86 167,60 -23,-45 -261,-167 -308,-157z"/>
   <path class="fil2" d="M13417 13357c-8,-66 -51,-88 -103,-159 -42,-58 -80,-116 -128,-120 6,45 114,170 155,219 38,46 22,46 76,60z"/>
   <path class="fil2" d="M9558 18995c17,37 18,27 73,36 80,13 232,56 270,27 -18,-34 -20,-25 -75,-34 -34,-6 -63,-11 -97,-16 -50,-9 -130,-40 -171,-13z"/>
   <path class="fil2" d="M14025 14785c7,-61 -20,-122 -35,-177l-34 -130c-22,-51 3,-16 -31,-31 -26,44 32,186 52,262 15,55 4,61 48,76z"/>
   <path class="fil2" d="M9705 11758c41,28 179,-7 259,-17 53,-7 59,3 82,-34 -12,-7 16,-22 -87,-7l-218 30c-54,14 -21,-4 -36,28z"/>
   <path class="fil2" d="M6677 15214c41,-17 28,13 35,-152l6 -151c-7,-60 -2,-20 -16,-40 -34,21 -23,7 -26,65 -4,69 -18,238 1,278z"/>
   <path class="fil2" d="M14088 15557c34,-47 7,-206 4,-269 -3,-55 8,-55 -29,-77 -8,13 -9,4 -13,28l7 150c3,51 -8,136 31,168z"/>
   <path class="fil2" d="M11099 19058c20,14 -5,26 89,0 104,-28 226,-36 247,-88 -44,-15 -117,14 -171,28l-140 35c-30,13 -11,-2 -25,25z"/>
   <path class="fil2" d="M13619 13687c7,-49 -3,-41 -32,-83l-98 -154c-33,-53 -15,-52 -69,-61 5,55 153,290 199,298z"/>
   <path class="fil2" d="M6715 14832c33,-22 81,-305 50,-342 -32,20 -22,11 -31,66 -12,76 -49,240 -19,276z"/>
   <path class="fil2" d="M11242 11833c16,48 298,118 334,100 -17,-38 -21,-29 -70,-43 -32,-8 -58,-16 -88,-24 -48,-14 -136,-54 -176,-33z"/>
   <path class="fil2" d="M6753 15989c14,-38 -27,-316 -63,-345 -32,37 10,193 23,274 8,50 0,57 40,71z"/>
   <path class="fil2" d="M10861 11758c26,37 66,30 165,47 57,10 131,36 176,15 -16,-31 15,-10 -23,-28 -4,-2 -36,-7 -42,-8 -34,-6 -64,-11 -99,-17 -28,-5 -56,-9 -84,-15 -101,-19 -72,-11 -93,6z"/>
   <path class="fil2" d="M11969 12123c19,21 264,174 312,150 -16,-41 -23,-35 -62,-53 -83,-38 -215,-138 -250,-97z"/>
   <path class="fil2" d="M13351 17708c42,-17 75,-85 102,-127 28,-45 86,-110 84,-167 -55,15 -56,54 -113,138 -30,44 -94,116 -73,156z"/>
   <path class="fil2" d="M13555 17390c54,-11 35,-1 63,-59 34,-73 100,-181 111,-251 -68,19 -170,276 -174,310z"/>
   <path class="fil2" d="M7444 13088c52,-10 61,-50 125,-124 29,-35 95,-100 96,-147 -57,2 -221,224 -221,271z"/>
   <path class="fil2" d="M12512 18498c62,-13 159,-105 229,-159 36,-28 44,-19 40,-69 -31,6 -251,158 -269,228z"/>
   <path class="fil2" d="M11310 19056c33,58 80,62 146,45 83,-20 84,-11 92,-93 -84,46 -143,25 -238,48z"/>
   <path class="fil2" d="M8078 18210c-45,-39 -172,-151 -219,-156 6,49 32,55 60,76 53,41 163,151 210,156 6,-46 -10,-41 -51,-76z"/>
   <path class="fil2" d="M7340 17422c-2,-50 -57,-118 -86,-159 -54,-78 -60,-123 -112,-138 -3,44 140,293 198,297z"/>
   <path class="fil2" d="M9327 11833c20,16 -31,15 38,16 4,0 272,-58 298,-91 -35,-32 -309,43 -336,75z"/>
   <path class="fil2" d="M7694 12801c39,-8 245,-197 248,-248 -53,1 -139,112 -200,169 -29,27 -45,29 -48,79z"/>
   <path class="fil2" d="M12185 18688c48,10 280,-143 289,-171 1,-2 -1,-4 -1,-8 0,-3 -1,-5 -2,-8 -28,-3 -275,141 -286,187z"/>
   <path class="fil2" d="M7840 18023c-1,-43 -136,-158 -172,-195 -31,-32 -33,-55 -84,-53 16,48 80,99 115,135 59,60 94,115 141,113z"/>
   <path class="fil2" d="M10507 11720c25,36 41,21 150,29 50,3 123,20 163,-4 -18,-40 -6,-26 -135,-34 -30,-3 -59,-5 -89,-7 -82,-7 -66,-6 -89,16z"/>
   <path class="fil2" d="M13166 13046c11,-48 -28,-64 -102,-138 -34,-35 -91,-112 -143,-120 7,53 78,104 112,138 33,33 94,108 133,120z"/>
   <path class="fil2" d="M9222 11792c169,-44 172,3 229,-48 -86,-57 -212,-62 -229,48z"/>
   <path class="fil2" d="M11603 12034c-46,-39 -42,-7 -97,-55 -40,-35 -46,-35 -102,-42 17,94 158,176 199,97z"/>
   <path class="fil2" d="M9894 11781c38,89 193,87 216,27 -50,-46 -27,-5 -105,-25 -30,-8 -75,-22 -111,-2z"/>
   <path class="fil2" d="M9356 18878c-25,-113 -157,-168 -192,-96 36,29 47,15 88,50 45,39 39,33 104,46z"/>
   <polygon class="fil2" points="10135,13780 10233,13783 10232,13669 10136,13670 "/>
   <path class="fil2" d="M13611 17175c41,-48 30,-48 44,-111 16,-70 28,-36 -3,-104 -22,15 -7,-2 -22,19 -24,32 -49,105 -45,144 6,48 26,52 26,52z"/>
   <path class="fil2" d="M6798 14453c24,-36 30,-83 40,-122 5,-23 9,-36 16,-60 22,-86 5,-58 -1,-70 -45,24 -28,15 -59,136 -15,58 -44,102 4,116z"/>
   <path class="fil2" d="M7093 13820l28 29c44,-61 73,-145 32,-216 -36,37 -56,125 -60,187z"/>
   <path class="fil2" d="M13912 16612c36,-24 21,1 51,-117 12,-47 39,-99 12,-135 -37,19 -35,61 -48,112 -21,81 -41,101 -15,140z"/>
   <path class="fil2" d="M13927 14407c13,-41 -8,-67 -26,-113 -25,-64 -9,-79 -73,-86 15,55 41,178 99,199z"/>
   <path class="fil2" d="M6933 16601c-12,-29 -25,-68 -37,-99 -48,-124 -19,-79 -56,-94 -21,36 5,70 23,115 23,59 12,80 70,78z"/>
   <path class="fil2" d="M13770 16639c90,-10 100,-29 109,-118 -75,16 -94,40 -109,118z"/>
   <path class="fil2" d="M6880 14294c69,-14 103,-48 110,-121 -86,11 -99,32 -110,121z"/>
   <path class="fil2" d="M8837 18642c18,-95 -87,-86 -146,-56 41,49 81,42 146,56z"/>
   <path class="fil2" d="M11918 12220c55,30 102,46 148,2 -55,-47 -65,-35 -136,-49l-12 47z"/>
   <path class="fil2" d="M11437 11829c42,41 91,36 148,37 -5,-44 -3,-59 -50,-65 -40,-6 -76,16 -98,28z"/>
   <path class="fil2" d="M9181 18951l21 56c56,10 89,-4 122,-28 -40,-31 -86,-33 -143,-28z"/>
   <path class="fil2" d="M10513 11659c42,21 53,16 104,18 -18,-53 -42,-83 -103,-78l-1 60z"/>
   <path class="fil2" d="M10509 11837c62,-5 83,-16 101,-64l-99 -4 -2 68z"/>
   <path class="fil2" d="M13699 17231c56,2 66,-6 98,-29 -14,-35 -6,-39 -48,-56l-50 85z"/>
   <path class="fil2" d="M6970 13617c23,40 6,33 51,52l39 -84c-53,-8 -66,3 -90,32z"/>
   <path class="fil2" d="M13674 13844c30,-37 9,-85 -38,-120 -24,41 3,82 38,120z"/>
   <path class="fil2" d="M7129 17088c19,-36 -4,-71 -37,-115 -2,2 -15,-4 -19,26 -2,14 11,68 56,89z"/>
   <path class="fil2" d="M12037 12084c15,16 -12,2 28,25 17,10 35,15 58,22l-21 -81c-42,4 -41,11 -65,34z"/>
   <path class="fil2" d="M8684 18697c-21,-10 -24,-11 -50,-16l34 89 57 -38 -41 -35z"/>
   <path class="fil2" d="M11474 18970c21,16 -30,17 38,13 62,-2 53,-54 54,-60 -114,27 -82,30 -92,47z"/>
   <path class="fil2" d="M9200 11889c57,-16 75,-12 88,-56 -57,-6 -80,2 -88,56z"/>
   <path class="fil8" d="M6248 11402c23,-53 58,-70 85,-128 -113,-57 -177,-60 -269,19 -214,182 -80,431 124,376 93,-25 175,-136 260,-81 62,95 -43,152 -152,104 -30,24 -81,87 -101,123 150,181 457,-49 413,-261 -19,-91 -117,-184 -233,-165 -86,14 -174,94 -201,105 -86,33 -98,-60 -40,-94 38,-22 72,-2 114,2z"/>
   <path class="fil8" d="M4720 14014c-60,15 -132,25 -189,53l-36 155 620 177 41 -159c-67,-13 -271,-65 -318,-97 70,-39 311,-71 383,-110l42 -153 -625 -177 -39 155 320 91c-11,10 -8,9 -29,19l-70 20c-32,8 -65,17 -100,26z"/>
   <path class="fil8" d="M5695 11978c35,-69 74,-126 159,-75 19,81 -19,114 -63,154l-96 -79zm305 -28c48,-167 -147,-323 -270,-223 -47,38 -216,257 -246,314l252 196c82,61 177,142 258,191 34,-30 79,-91 103,-135 -42,-42 -185,-126 -196,-170 70,-65 224,14 321,19 24,-52 71,-92 102,-151 -87,-45 -225,-60 -324,-41z"/>
   <path class="fil8" d="M4882 14755c-30,150 -286,25 -511,-1 -23,43 -35,114 -39,170 320,56 628,209 700,-144 36,-176 -49,-268 -184,-307 -93,-28 -315,-73 -413,-82l-31 172c91,11 194,36 285,54 94,19 216,23 193,138z"/>
   <path class="fil8" d="M5362 12507c35,-91 113,-166 143,-254l-117 -62 -241 396 545 334c39,-33 230,-342 253,-405l-114 -68c-36,30 -137,198 -161,248 -41,-13 -83,-40 -110,-67 31,-54 121,-179 133,-235l-106 -61 -149 227 -76 -53z"/>
   <path class="fil8" d="M5183 13003c54,46 141,105 172,165l-456 -83c-21,33 -69,122 -72,159l672 91 77 -161 -472 -478c-15,12 -7,3 -20,20l-66 131 165 156z"/>
   <polygon class="fil8" points="3847,13830 4144,13900 4158,13824 3750,13727 3726,13851 3969,13991 3683,13997 3653,14121 4066,14218 4080,14146 3794,14067 4104,14063 4119,13981 "/>
   <path class="fil8" d="M5315 13762c35,-42 52,-107 65,-161l-605 -229 -57 159 597 231z"/>
   <path class="fil8" d="M4099 13103c264,-71 297,1 335,-130 -42,-36 -322,-144 -390,-163l-25 75 207 84c27,19 6,1 27,25 -64,8 -129,21 -194,31 -112,17 -99,-4 -135,86 21,26 344,156 392,162l22 -61 -123 -59c-42,-17 -79,-31 -116,-50z"/>
   <path class="fil8" d="M4622 11827c23,-43 68,-152 133,-110 62,39 -25,136 -45,170 -36,-14 -64,-30 -88,-60zm445 -51c-82,-2 -147,-2 -222,12 25,-177 -118,-191 -179,-145 -35,28 -137,178 -151,222 49,42 311,215 357,225l33 -61 -36 -33c-13,-9 -20,-12 -31,-19 -33,-20 -42,-25 -68,-49 32,-89 134,-65 246,-65l51 -87z"/>
   <path class="fil8" d="M3975 15050c-73,-47 -130,14 -184,-104l203 -94 4 -107 -269 134c-49,-38 -102,-126 -151,-158l-7 102 160 191 -177 -12 -4 73c66,34 326,41 421,46l4 -71z"/>
   <path class="fil8" d="M3882 13522c2,-73 64,-157 43,-227l-45 -12c-31,38 -86,257 -91,294 49,30 333,108 405,118l84 -305 -58 -16c-38,55 -42,148 -77,222l-99 -32c3,-65 57,-155 38,-207l-56 -12 -56 200 -88 -23z"/>
   <path class="fil8" d="M3859 14340l-65 -6 -30 208 -88 -9c4,-70 38,-170 10,-231l-45 -4c-34,46 -43,238 -46,310l411 45c25,-56 51,-250 37,-316l-50 -4c-34,49 -15,161 -50,231l-103 -11 19 -213z"/>
   <path class="fil8" d="M4386 12243c34,-150 151,-172 48,-229 -44,21 -145,244 -152,279 119,40 261,152 383,183 61,-200 211,-278 70,-311l-102 206 -98 -53c34,-148 160,-182 20,-218 -22,56 -52,137 -97,182l-72 -39z"/>
   <path class="fil8" d="M5104 11209c39,6 107,26 139,52 -12,18 -23,34 -32,46 -25,31 -5,13 -36,30l-71 -128zm120 203c26,-50 65,-90 104,-131l99 26 51 -71c-112,-30 -336,-120 -442,-129 -30,61 -59,49 -22,113l200 339c31,-22 34,-23 55,-60l-45 -87z"/>
   <polygon class="fil8" points="4294,12418 4230,12393 4093,12699 4159,12723 4203,12610 4532,12756 4560,12681 4249,12531 "/>
   <path class="fil8" d="M4787 11462c58,50 286,220 343,242l35 -66 -336 -245c-20,23 -34,36 -42,69z"/>
   <path class="fil8" d="M14413 11638c45,-96 190,-243 214,-330l-151 -153 -246 213c-45,41 -71,71 -117,109 -31,25 -92,85 -114,112l83 100c61,-22 233,-217 342,-293 -55,123 -204,262 -253,381 23,36 46,64 91,89l402 -224c-53,70 -278,243 -329,311 15,33 66,80 90,100l239 -214c44,-41 72,-57 119,-107 38,-39 79,-69 119,-104 -13,-30 -128,-155 -152,-176l-337 186z"/>
   <path class="fil8" d="M14850 10417c228,85 -27,437 -177,202l177 -202zm-287 189c24,52 116,133 168,160 160,85 372,-165 278,-303 -26,-39 -138,-142 -170,-157 -87,95 -183,205 -276,300z"/>
   <path class="fil8" d="M15151 11110c30,-38 162,-158 205,-178 86,89 116,128 10,225 -98,89 -164,49 -215,-47zm-111 -13c16,33 131,154 159,170 97,54 182,-6 234,-55 193,-182 2,-277 -73,-395 -46,17 -291,236 -320,280z"/>
   <path class="fil8" d="M15378 11515c45,-21 305,-227 333,-267 -17,-30 -24,-32 -43,-59 -64,35 -263,205 -332,263l42 63z"/>
   <path class="fil8" d="M14940 10996c41,-19 282,-245 312,-291l-58 -57 -301 289 47 59z"/>
   <path class="fil8" d="M11074 9379l-164 -13 -30 339c-18,-17 0,8 -26,-32l-102 -214c-25,-53 -47,-167 -220,-117l-54 639 163 13 31 -335 180 355 168 5 54 -640z"/>
   <path class="fil8" d="M9289 9572c61,-11 85,-26 150,-8 52,106 -40,149 -128,128l-22 -120zm-70 545l171 -40 -49 -254c86,-6 97,42 136,94 31,41 68,82 88,128l192 -43c-21,-53 -127,-212 -216,-239 46,-48 95,-77 91,-176 -14,-280 -322,-149 -544,-107l131 637z"/>
   <path class="fil8" d="M15940 13826c14,57 66,156 -18,171 -77,14 -94,-74 -109,-131l127 -40zm-494 165l254 -82c4,122 -92,143 -193,260l58 181c61,-29 171,-157 209,-216 24,-38 3,-11 25,-32 74,127 315,68 324,-85 3,-59 -97,-363 -126,-401l-606 214 55 161z"/>
   <path class="fil8" d="M15055 12759c32,-35 266,-160 301,-173 104,102 21,180 -60,225 -129,72 -180,76 -241,-52zm-214 -88c98,174 175,510 536,297 335,-197 157,-345 26,-614l-562 317z"/>
   <path class="fil8" d="M12674 10047c216,-75 141,304 -2,342 -218,59 -147,-290 2,-342zm310 169c71,-363 -529,-509 -620,-9 -68,372 516,536 620,9z"/>
   <path class="fil8" d="M11583 9813c-18,86 -49,170 -151,153 -96,-15 -101,-124 -79,-218 52,-226 283,-185 230,65zm177 13c40,-215 -60,-346 -244,-373 -377,-57 -513,598 -98,665 216,35 308,-113 342,-292z"/>
   <path class="fil8" d="M13718 10739c97,-42 181,46 144,147 -19,54 -102,149 -148,168 -191,78 -207,-222 4,-315zm319 169c38,-177 -129,-345 -291,-345 -210,0 -495,339 -276,559 274,276 532,-52 567,-214z"/>
   <path class="fil8" d="M9797 9351c-7,81 2,383 17,455 29,137 113,198 270,197 344,-3 269,-366 255,-666l-168 2c-15,74 -1,227 2,310 3,104 15,208 -101,201 -105,-5 -91,-108 -94,-208 -3,-98 -6,-196 -8,-296l-173 5z"/>
   <path class="fil8" d="M15874 13290c-201,57 -447,266 -506,112 -43,-110 99,-146 175,-180 77,-35 183,-74 251,-115l-73 -151c-73,17 -307,126 -380,165 -127,69 -179,179 -111,344 144,355 474,50 717,-12l-73 -163z"/>
   <path class="fil8" d="M15009 12101c-23,36 -44,65 -68,91 -17,18 -23,23 -37,38l-40 37 -59 -87 204 -79zm-206 511c47,-33 408,-524 413,-533 -25,-60 -68,-94 -93,-157 -98,11 -249,65 -346,93 -56,16 -107,31 -166,48 -42,12 -117,25 -149,54l89 138 114 -27 104 154 -67 89 101 141z"/>
   <path class="fil8" d="M15898 14649c-19,-30 -27,-69 -33,-110l219 1c-17,31 -146,95 -186,109zm-191 304c99,-31 441,-287 585,-352l-47 -191 -682 -55 41 166c39,17 64,9 113,16l46 191 -96 47 40 178z"/>
   <path class="fil8" d="M7504 10598l-101 60 -65 -207c67,44 112,87 166,147zm-161 402l142 -93 -32 -104 166 -109 88 67 142 -87c-24,-45 -504,-419 -535,-432l-159 95 188 663z"/>
   <path class="fil8" d="M7970 10088c26,-13 41,-22 71,-40l57 -46c-118,-221 -547,-9 -412,233 85,149 213,58 347,61 74,2 100,74 47,117 -72,58 -128,-3 -163,-37l-131 92c47,68 113,146 253,106 301,-88 259,-363 118,-432 -106,-53 -396,71 -340,-53 40,-88 150,-2 153,-1z"/>
   <path class="fil8" d="M13295 10186c-52,-24 -111,-80 -162,-94 -6,121 -6,284 -21,400 -9,67 -109,184 -146,253 29,36 93,76 138,96 96,-83 72,-183 221,-253 107,-52 214,-109 318,-159 -179,-190 -220,-50 -370,1l22 -244z"/>
   <polygon class="fil8" points="8982,9660 8934,9512 8427,9674 8474,9830 8648,9777 8802,10238 8966,10187 8819,9720 "/>
   <path class="fil8" d="M6925 10719c33,-31 95,-83 126,-99 -22,-52 -59,-96 -100,-127 -53,30 -147,115 -203,162 -68,57 -131,102 -200,165 13,49 58,82 85,126 72,-28 83,-79 159,-105l297 367c36,-12 109,-79 134,-109 -50,-66 -284,-325 -298,-380z"/>
   <path class="fil8" d="M11815 9989c-74,262 230,376 359,254 62,-58 204,-400 226,-508l-162 -57c-24,61 -148,427 -197,447 -88,34 -63,-70 -63,-117l-163 -19z"/>
   <path class="fil8" d="M6438 10934c-41,21 -108,86 -129,128l449 449c45,-22 106,-82 129,-128l-449 -449z"/>
   <path class="fil8" d="M16650 13818c29,-57 84,-93 130,-138 71,-69 95,-51 73,-166 -84,9 -359,63 -413,101l14 68 261 -52 -220 206 15 80c20,10 0,5 29,8l81 -14c36,-9 66,-16 103,-25l182 -46 6 -77 -261 55z"/>
   <path class="fil8" d="M5723 10987c23,-33 28,-27 45,-69 -56,-49 -258,-263 -317,-277l-36 38c26,74 142,132 187,202 -90,-13 -242,-65 -323,-59 -24,33 -25,20 -42,65 72,48 254,250 306,276l46 -56 -184 -184 318 64z"/>
   <path class="fil8" d="M13333 9281l-65 -24c-42,67 -67,156 -99,207 -10,15 -9,14 -19,24 -61,-283 16,-294 -120,-340 -45,99 -142,288 -167,389l69 24 114 -227 39 298 83 34 165 -385z"/>
   <path class="fil8" d="M5852 10350c43,-23 118,-121 164,-55 42,59 -67,123 -97,143 -38,-33 -50,-33 -67,-88zm224 36c52,-105 12,-226 -117,-197 -46,11 -194,147 -217,178 33,57 223,252 266,317l63 -53c-28,-51 -86,-92 -101,-138 60,-55 79,-40 164,-15 104,32 103,13 161,-35 -45,-40 -146,-56 -219,-57z"/>
   <path class="fil8" d="M16212 12570c96,-223 184,-188 131,-344 -55,14 -338,159 -383,195l39 62 232 -111c-33,52 -62,108 -99,168 -47,77 -81,85 -18,173l371 -194 -35 -64 -238 115z"/>
   <path class="fil8" d="M14513 10040c-28,-29 -26,-33 -63,-48 -29,25 -232,285 -254,325l53 45c57,-49 107,-155 171,-189l-29 305 59 42c24,-13 4,1 23,-17l50 -63c44,-59 170,-205 188,-252l-59 -36c-41,47 -131,171 -170,195l31 -307z"/>
   <path class="fil8" d="M16741 14325c-111,27 -160,-206 38,-233 84,-11 148,23 155,102 10,125 -67,21 -20,177 179,-67 108,-396 -147,-366 -101,12 -176,71 -193,164 -22,122 35,186 91,250 58,6 119,-11 174,-27l-32 -177 -62 10c-7,41 0,21 0,52l-4 48z"/>
   <path class="fil8" d="M16791 14839c-130,-5 -116,-250 99,-228 67,6 115,51 111,124 -5,108 -90,43 -34,163 171,-27 147,-374 -101,-376 -244,-2 -291,249 -150,409l171 -12 -15 -181 -67 0 -14 101z"/>
   <path class="fil8" d="M10727 8679c186,-88 217,206 97,265 -102,50 -196,-51 -156,-195 16,-58 24,-53 59,-70zm237 228c125,-320 -296,-428 -378,-190 -110,320 291,415 378,190z"/>
   <path class="fil8" d="M11382 8932c1,49 4,56 -46,69 -32,9 -66,7 -95,-5 -59,-24 -75,-82 -68,-153 6,-65 38,-116 95,-126 92,-17 99,29 137,73l68 -5c34,-158 -329,-237 -383,22 -53,252 212,341 373,223 7,-59 23,-124 5,-167l-171 -14 -5 64 90 19z"/>
   <path class="fil8" d="M12079 9171l68 -264c114,18 174,48 140,177 -31,117 -88,154 -208,87zm-104 49c181,74 340,96 395,-103 63,-232 -107,-271 -288,-301l-107 404z"/>
   <path class="fil8" d="M9724 8831c-21,-209 215,-224 232,-37 20,210 -214,219 -232,37zm61 -230c-119,31 -177,128 -142,279 25,108 131,180 266,142 232,-67 166,-495 -124,-421z"/>
   <path class="fil8" d="M9533 9055l-35 -380c-10,-38 -5,-21 -18,-42l-50 6c-19,36 -6,89 -1,130 5,48 10,91 12,139 -73,-65 -134,-178 -172,-219 -41,-44 -36,-29 -109,-23l56 421 62 -6c3,-79 -38,-202 -12,-263 29,46 74,97 109,144 56,76 47,101 158,93z"/>
   <path class="fil8" d="M15707 11536c39,-20 105,-70 144,-98l-54 -65c-53,31 -310,215 -336,251 16,24 26,35 46,55 83,-41 80,-83 199,-51 -45,134 -105,173 -72,235l46 48c1,-2 5,5 6,6l106 -279 220 28c-63,-139 -144,-82 -266,-114l-39 -16z"/>
   <path class="fil8" d="M9015 8707c-175,27 -90,41 -235,233l-43 -173 -80 13 90 416 78 -14c-11,-134 -52,-109 35,-207 44,54 104,101 140,165l117 -26 -211 -220 109 -187z"/>
   <path class="fil8" d="M6968 9536l-27 -51c-50,21 -228,129 -269,167l214 353c61,-18 218,-129 281,-166l-42 -59 -200 119 -54 -104 135 -77c25,-18 20,-14 35,-31l-24 -52c-76,25 -118,80 -194,105 -16,-34 -25,-37 -36,-78l181 -126z"/>
   <path class="fil8" d="M14059 9906c13,-37 20,-51 52,-77 63,25 123,94 190,120l33 -58c-89,-55 -163,-123 -255,-173 -44,50 -88,119 -126,176 -37,53 -79,113 -113,166 33,33 213,160 262,184l33 -53c-37,-45 -130,-91 -184,-140l55 -89c71,29 119,86 184,114l33 -49c-32,-42 -118,-93 -164,-121z"/>
   <path class="fil8" d="M8320 8957c56,-36 166,-33 214,-76l-13 -59 -304 86 105 402c66,-10 270,-56 310,-89l-11 -59 -233 56 -26 -109c38,-9 72,-20 109,-29 13,-3 37,-8 50,-12l32 -18c1,-3 5,-3 7,-5 -23,-113 -42,-25 -223,-8l-17 -80z"/>
   <path class="fil8" d="M6607 9826c-48,-53 -95,-70 -173,-26 -176,100 -109,268 34,248 63,-9 132,-67 177,-31 53,48 -16,153 -147,89 -27,20 -36,25 -58,49 48,52 100,83 188,40 185,-89 132,-281 -4,-280 -81,1 -141,65 -204,40 -22,-21 -2,-68 35,-86 42,-20 69,1 105,5l47 -48z"/>
   <path class="fil8" d="M16079 11986c-21,20 -71,91 -92,117 -27,-23 -50,-55 -59,-95l151 -22zm-332 56l103 -14 79 139c-20,43 -28,45 -60,76l50 83c47,-55 93,-116 137,-177 44,-60 99,-117 136,-184l-40 -76 -451 77 46 76z"/>
   <path class="fil8" d="M12594 9234c19,-38 47,-79 102,-109l-4 151 -98 -42zm-56 61l153 53 4 107 86 31 -6 -453 -86 -27 -297 329c31,22 44,25 84,27l62 -67z"/>
   <path class="fil8" d="M13721 9576c67,32 125,46 91,140 -68,20 -105,-13 -155,-41l64 -99zm-100 165c39,18 113,67 163,68 69,1 314,-155 -101,-337 -40,41 -191,303 -213,364l71 36 80 -131z"/>
   <path class="fil8" d="M7361 9341c19,-13 12,-7 23,-19l-20 -51c-49,8 -264,112 -307,145l33 58 111 -49 153 314 77 -38 -151 -318 81 -42z"/>
   <path class="fil8" d="M16630 13069l49 108 60 -24 -120 -311 -69 22 42 124 -288 114c-30,16 -15,6 -33,22l32 69 327 -124z"/>
   <path class="fil8" d="M8105 9019l-23 -61 -311 125 24 60 112 -37c62,87 68,242 140,321l69 -33 -119 -326 108 -49z"/>
   <path class="fil8" d="M10172 9000c56,5 108,2 164,1 150,-1 128,9 134,-31 -8,-45 5,-27 -33,-41 -21,-7 -127,9 -180,-6l-10 -342 -81 2 6 417z"/>
   <path class="fil8" d="M16799 13345l-26 -78c-66,6 -354,110 -398,147l21 73 403 -142z"/>
   <path class="fil8" d="M11644 9143c35,-48 91,-333 103,-414l-82 -11 -91 411 70 14z"/>
   <path class="fil8" d="M6433 10341c-22,-52 -89,-127 -126,-174 -39,-52 -98,-137 -140,-164 -24,25 -31,26 -51,49 57,67 180,263 256,328 37,-16 27,-18 61,-39z"/>
   <path class="fil8" d="M7541 9549c3,22 9,52 24,65l46 11 -17 73c101,7 43,-132 10,-172l-63 23z"/>
   <path class="fil8" d="M17154 15113l-12 -82c-67,-5 -368,48 -417,76l8 76 421 -70z"/>
  </g>
 </g>
</svg>
